M48
;GenerationSoftware,Autodesk,EAGLE,9.6.2*%
;CreationDate,2023-03-30T13:24:01Z*%
FMAT,2
ICI,OFF
METRIC,TZ,000.000
T4C0.813
T3C0.914
T2C1.000
T1C1.016
%
G90
M71
T1
X87630Y24130
X90170Y24130
X92710Y24130
T2
X81280Y6350
X83820Y6350
X86360Y6350
X88900Y6350
X91440Y6350
X93980Y6350
X44450Y35560
X46990Y35560
X49530Y35560
X52070Y35560
X54610Y35560
X57150Y35560
X59690Y35560
X62230Y35560
X35560Y20320
X38100Y20320
X40640Y20320
X48260Y6350
X50800Y6350
X53340Y6350
X55880Y6350
X60960Y6350
X63500Y6350
X66040Y6350
X60960Y20320
X58420Y20320
X55880Y20320
X53340Y20320
X58420Y6350
X15240Y21590
X17780Y21590
X20320Y21590
T3
X15240Y63500
X15240Y53340
X11430Y53340
X11430Y63500
X35560Y53340
X35560Y63500
X29210Y63500
X29210Y53340
X63500Y63500
X63500Y53340
X58420Y63500
X58420Y53340
X85090Y63500
X85090Y53340
X80010Y63500
X80010Y53340
T4
X33020Y71120
X31750Y73025
X30480Y71120
X60960Y71120
X59690Y73025
X58420Y71120
X83820Y71120
X82550Y73025
X81280Y71120
X12700Y72390
X11430Y74295
X10160Y72390
M30