G04 EAGLE Gerber RS-274X export*
G75*
%MOMM*%
%FSLAX34Y34*%
%LPD*%
%INTop Copper*%
%IPPOS*%
%AMOC8*
5,1,8,0,0,1.08239X$1,22.5*%
G01*
%ADD10C,1.524000*%
%ADD11P,1.632244X8X22.500000*%
%ADD12P,1.539592X8X292.500000*%
%ADD13P,1.539592X8X112.500000*%
%ADD14P,1.429621X8X22.500000*%
%ADD15P,1.632244X8X292.500000*%
%ADD16P,1.632244X8X202.500000*%
%ADD17C,0.152400*%


D10*
X876300Y233680D02*
X876300Y248920D01*
X901700Y248920D02*
X901700Y233680D01*
X927100Y233680D02*
X927100Y248920D01*
D11*
X812800Y63500D03*
X838200Y63500D03*
X863600Y63500D03*
X889000Y63500D03*
X914400Y63500D03*
X939800Y63500D03*
X444500Y355600D03*
X469900Y355600D03*
X495300Y355600D03*
X520700Y355600D03*
X546100Y355600D03*
X571500Y355600D03*
X596900Y355600D03*
X622300Y355600D03*
D12*
X152400Y635000D03*
X152400Y533400D03*
D13*
X114300Y533400D03*
X114300Y635000D03*
X355600Y533400D03*
X355600Y635000D03*
D12*
X292100Y635000D03*
X292100Y533400D03*
X635000Y635000D03*
X635000Y533400D03*
X584200Y635000D03*
X584200Y533400D03*
X850900Y635000D03*
X850900Y533400D03*
X800100Y635000D03*
X800100Y533400D03*
D14*
X127000Y723900D03*
X114300Y742950D03*
X101600Y723900D03*
X330200Y711200D03*
X317500Y730250D03*
X304800Y711200D03*
X609600Y711200D03*
X596900Y730250D03*
X584200Y711200D03*
X838200Y711200D03*
X825500Y730250D03*
X812800Y711200D03*
D15*
X152400Y215900D03*
X177800Y215900D03*
X203200Y215900D03*
X355600Y203200D03*
X381000Y203200D03*
X406400Y203200D03*
D11*
X482600Y63500D03*
X508000Y63500D03*
X533400Y63500D03*
X558800Y63500D03*
X584200Y63500D03*
X609600Y63500D03*
X635000Y63500D03*
X660400Y63500D03*
D16*
X609600Y203200D03*
X584200Y203200D03*
X558800Y203200D03*
X533400Y203200D03*
D17*
X114300Y635000D02*
X114300Y742950D01*
X128016Y723900D02*
X128016Y659892D01*
X152400Y635508D01*
X128016Y723900D02*
X127000Y723900D01*
X152400Y635508D02*
X152400Y635000D01*
X316992Y659892D02*
X316992Y729996D01*
X316992Y659892D02*
X292100Y635000D01*
X316992Y729996D02*
X317500Y730250D01*
X330708Y710184D02*
X330708Y659892D01*
X355600Y635000D01*
X330708Y710184D02*
X330200Y711200D01*
X595884Y729996D02*
X595884Y646176D01*
X585216Y635508D01*
X595884Y729996D02*
X596900Y730250D01*
X585216Y635508D02*
X584200Y635000D01*
X609600Y659892D02*
X609600Y711200D01*
X609600Y659892D02*
X633984Y635508D01*
X635000Y635000D01*
X824484Y659892D02*
X824484Y729996D01*
X824484Y659892D02*
X800100Y635508D01*
X824484Y729996D02*
X825500Y730250D01*
X800100Y635508D02*
X800100Y635000D01*
X838200Y647700D02*
X838200Y711200D01*
X838200Y647700D02*
X850900Y635000D01*
X163068Y216408D02*
X152400Y216408D01*
X163068Y216408D02*
X278384Y331724D01*
X446024Y331724D01*
X469900Y355600D01*
X152400Y216408D02*
X152400Y215900D01*
X381000Y203200D02*
X381000Y200660D01*
X415036Y166624D01*
X584200Y166624D01*
X609600Y142748D02*
X609600Y63500D01*
X584200Y166624D02*
X584200Y203200D01*
X585724Y166624D02*
X609600Y142748D01*
X901700Y219456D02*
X901700Y241300D01*
X901700Y219456D02*
X824992Y142748D01*
X609600Y142748D01*
X544576Y533400D02*
X567944Y556768D01*
X610616Y556768D01*
X633984Y533400D01*
X635000Y533400D01*
X241300Y533400D02*
X152400Y533400D01*
X241300Y533400D02*
X266700Y558800D01*
X330200Y558800D02*
X355600Y533400D01*
X330200Y558800D02*
X266700Y558800D01*
X355600Y533400D02*
X544576Y533400D01*
X584200Y203200D02*
X585724Y201676D01*
X585724Y166624D01*
X356616Y204216D02*
X356616Y216408D01*
X495300Y355092D01*
X356616Y204216D02*
X355600Y203200D01*
X495300Y355092D02*
X495300Y355600D01*
X268224Y378460D02*
X114300Y532384D01*
X114300Y533400D01*
X268224Y378460D02*
X523748Y378460D01*
X545592Y356616D01*
X546100Y355600D01*
X585216Y367284D02*
X585216Y533400D01*
X585216Y367284D02*
X596900Y355600D01*
X585216Y533400D02*
X584200Y533400D01*
X622300Y355600D02*
X800100Y533400D01*
X521208Y355092D02*
X521208Y216408D01*
X533400Y204216D01*
X521208Y355092D02*
X520700Y355600D01*
X533400Y204216D02*
X533400Y203200D01*
X813816Y89916D02*
X813816Y64008D01*
X927100Y203200D02*
X927100Y241300D01*
X927100Y203200D02*
X882650Y158750D01*
X813816Y89916D01*
X813816Y64008D02*
X812800Y63500D01*
X839216Y533400D02*
X850900Y533400D01*
X839216Y533400D02*
X815848Y556768D01*
X658876Y556768D01*
X635508Y533400D01*
M02*
