G04 EAGLE Gerber RS-274X export*
G75*
%MOMM*%
%FSLAX34Y34*%
%LPD*%
%INSilkscreen Top*%
%IPPOS*%
%AMOC8*
5,1,8,0,0,1.08239X$1,22.5*%
G01*
%ADD10C,0.152400*%
%ADD11C,0.127000*%
%ADD12C,0.203200*%
%ADD13C,0.101600*%
%ADD14R,0.762000X1.397000*%


D10*
X869950Y254000D02*
X882650Y254000D01*
X889000Y247650D01*
X889000Y234950D01*
X882650Y228600D01*
X889000Y247650D02*
X895350Y254000D01*
X908050Y254000D01*
X914400Y247650D01*
X914400Y234950D01*
X908050Y228600D01*
X895350Y228600D01*
X889000Y234950D01*
X863600Y234950D02*
X863600Y247650D01*
X869950Y254000D01*
X863600Y234950D02*
X869950Y228600D01*
X882650Y228600D01*
X914400Y247650D02*
X920750Y254000D01*
X933450Y254000D01*
X939800Y247650D01*
X939800Y234950D01*
X933450Y228600D01*
X920750Y228600D01*
X914400Y234950D01*
D11*
X867283Y262763D02*
X867283Y271653D01*
X867283Y262763D02*
X867281Y262663D01*
X867275Y262564D01*
X867265Y262464D01*
X867252Y262366D01*
X867234Y262267D01*
X867213Y262170D01*
X867188Y262074D01*
X867159Y261978D01*
X867126Y261884D01*
X867090Y261791D01*
X867050Y261700D01*
X867006Y261610D01*
X866959Y261522D01*
X866909Y261436D01*
X866855Y261352D01*
X866798Y261270D01*
X866738Y261191D01*
X866674Y261113D01*
X866608Y261039D01*
X866539Y260967D01*
X866467Y260898D01*
X866393Y260832D01*
X866315Y260768D01*
X866236Y260708D01*
X866154Y260651D01*
X866070Y260597D01*
X865984Y260547D01*
X865896Y260500D01*
X865806Y260456D01*
X865715Y260416D01*
X865622Y260380D01*
X865528Y260347D01*
X865432Y260318D01*
X865336Y260293D01*
X865239Y260272D01*
X865140Y260254D01*
X865042Y260241D01*
X864942Y260231D01*
X864843Y260225D01*
X864743Y260223D01*
X863473Y260223D01*
X873263Y260223D02*
X873263Y271653D01*
X876438Y271653D01*
X876549Y271651D01*
X876659Y271645D01*
X876770Y271636D01*
X876880Y271622D01*
X876989Y271605D01*
X877098Y271584D01*
X877206Y271559D01*
X877313Y271530D01*
X877419Y271498D01*
X877524Y271462D01*
X877627Y271422D01*
X877729Y271379D01*
X877830Y271332D01*
X877929Y271281D01*
X878026Y271228D01*
X878120Y271171D01*
X878213Y271110D01*
X878304Y271047D01*
X878393Y270980D01*
X878479Y270910D01*
X878562Y270837D01*
X878644Y270762D01*
X878722Y270684D01*
X878797Y270602D01*
X878870Y270519D01*
X878940Y270433D01*
X879007Y270344D01*
X879070Y270253D01*
X879131Y270160D01*
X879188Y270065D01*
X879241Y269969D01*
X879292Y269870D01*
X879339Y269769D01*
X879382Y269667D01*
X879422Y269564D01*
X879458Y269459D01*
X879490Y269353D01*
X879519Y269246D01*
X879544Y269138D01*
X879565Y269029D01*
X879582Y268920D01*
X879596Y268810D01*
X879605Y268699D01*
X879611Y268589D01*
X879613Y268478D01*
X879611Y268367D01*
X879605Y268257D01*
X879596Y268146D01*
X879582Y268036D01*
X879565Y267927D01*
X879544Y267818D01*
X879519Y267710D01*
X879490Y267603D01*
X879458Y267497D01*
X879422Y267392D01*
X879382Y267289D01*
X879339Y267187D01*
X879292Y267086D01*
X879241Y266987D01*
X879188Y266890D01*
X879131Y266796D01*
X879070Y266703D01*
X879007Y266612D01*
X878940Y266523D01*
X878870Y266437D01*
X878797Y266354D01*
X878722Y266272D01*
X878644Y266194D01*
X878562Y266119D01*
X878479Y266046D01*
X878393Y265976D01*
X878304Y265909D01*
X878213Y265846D01*
X878120Y265785D01*
X878026Y265728D01*
X877929Y265675D01*
X877830Y265624D01*
X877729Y265577D01*
X877627Y265534D01*
X877524Y265494D01*
X877419Y265458D01*
X877313Y265426D01*
X877206Y265397D01*
X877098Y265372D01*
X876989Y265351D01*
X876880Y265334D01*
X876770Y265320D01*
X876659Y265311D01*
X876549Y265305D01*
X876438Y265303D01*
X873263Y265303D01*
X884122Y269113D02*
X887297Y271653D01*
X887297Y260223D01*
X884122Y260223D02*
X890472Y260223D01*
D12*
X953790Y75050D02*
X798810Y75050D01*
X953790Y75050D02*
X953790Y51950D01*
X798810Y51950D01*
X798810Y75050D01*
D11*
X812659Y49149D02*
X808355Y45706D01*
X812659Y49149D02*
X812659Y33655D01*
X808355Y33655D02*
X816963Y33655D01*
D13*
X793242Y51308D02*
X781558Y51308D01*
X781558Y54554D01*
X781560Y54667D01*
X781566Y54780D01*
X781576Y54893D01*
X781590Y55006D01*
X781607Y55118D01*
X781629Y55229D01*
X781654Y55339D01*
X781684Y55449D01*
X781717Y55557D01*
X781754Y55664D01*
X781794Y55770D01*
X781839Y55874D01*
X781887Y55977D01*
X781938Y56078D01*
X781993Y56177D01*
X782051Y56274D01*
X782113Y56369D01*
X782178Y56462D01*
X782246Y56552D01*
X782317Y56640D01*
X782392Y56726D01*
X782469Y56809D01*
X782549Y56889D01*
X782632Y56966D01*
X782718Y57041D01*
X782806Y57112D01*
X782896Y57180D01*
X782989Y57245D01*
X783084Y57307D01*
X783181Y57365D01*
X783280Y57420D01*
X783381Y57471D01*
X783484Y57519D01*
X783588Y57564D01*
X783694Y57604D01*
X783801Y57641D01*
X783909Y57674D01*
X784019Y57704D01*
X784129Y57729D01*
X784240Y57751D01*
X784352Y57768D01*
X784465Y57782D01*
X784578Y57792D01*
X784691Y57798D01*
X784804Y57800D01*
X784917Y57798D01*
X785030Y57792D01*
X785143Y57782D01*
X785256Y57768D01*
X785368Y57751D01*
X785479Y57729D01*
X785589Y57704D01*
X785699Y57674D01*
X785807Y57641D01*
X785914Y57604D01*
X786020Y57564D01*
X786124Y57519D01*
X786227Y57471D01*
X786328Y57420D01*
X786427Y57365D01*
X786524Y57307D01*
X786619Y57245D01*
X786712Y57180D01*
X786802Y57112D01*
X786890Y57041D01*
X786976Y56966D01*
X787059Y56889D01*
X787139Y56809D01*
X787216Y56726D01*
X787291Y56640D01*
X787362Y56552D01*
X787430Y56462D01*
X787495Y56369D01*
X787557Y56274D01*
X787615Y56177D01*
X787670Y56078D01*
X787721Y55977D01*
X787769Y55874D01*
X787814Y55770D01*
X787854Y55664D01*
X787891Y55557D01*
X787924Y55449D01*
X787954Y55339D01*
X787979Y55229D01*
X788001Y55118D01*
X788018Y55006D01*
X788032Y54893D01*
X788042Y54780D01*
X788048Y54667D01*
X788050Y54554D01*
X788049Y54554D02*
X788049Y51308D01*
X793242Y64751D02*
X793242Y67347D01*
X793242Y64751D02*
X793240Y64652D01*
X793234Y64552D01*
X793225Y64453D01*
X793212Y64355D01*
X793195Y64257D01*
X793174Y64159D01*
X793149Y64063D01*
X793121Y63968D01*
X793089Y63874D01*
X793054Y63781D01*
X793015Y63689D01*
X792972Y63599D01*
X792927Y63511D01*
X792877Y63424D01*
X792825Y63340D01*
X792769Y63257D01*
X792711Y63177D01*
X792649Y63099D01*
X792584Y63024D01*
X792516Y62951D01*
X792446Y62881D01*
X792373Y62813D01*
X792298Y62748D01*
X792220Y62686D01*
X792140Y62628D01*
X792057Y62572D01*
X791973Y62520D01*
X791886Y62470D01*
X791798Y62425D01*
X791708Y62382D01*
X791616Y62343D01*
X791523Y62308D01*
X791429Y62276D01*
X791334Y62248D01*
X791238Y62223D01*
X791140Y62202D01*
X791042Y62185D01*
X790944Y62172D01*
X790845Y62163D01*
X790745Y62157D01*
X790646Y62155D01*
X790646Y62154D02*
X784154Y62154D01*
X784055Y62156D01*
X783955Y62162D01*
X783856Y62171D01*
X783758Y62184D01*
X783660Y62202D01*
X783562Y62222D01*
X783466Y62247D01*
X783370Y62275D01*
X783276Y62307D01*
X783183Y62342D01*
X783092Y62381D01*
X783002Y62424D01*
X782913Y62469D01*
X782827Y62519D01*
X782742Y62571D01*
X782660Y62627D01*
X782580Y62686D01*
X782502Y62747D01*
X782426Y62812D01*
X782353Y62880D01*
X782283Y62950D01*
X782215Y63023D01*
X782150Y63099D01*
X782089Y63177D01*
X782030Y63257D01*
X781974Y63339D01*
X781922Y63424D01*
X781873Y63510D01*
X781827Y63599D01*
X781784Y63689D01*
X781745Y63780D01*
X781710Y63873D01*
X781678Y63967D01*
X781650Y64063D01*
X781625Y64159D01*
X781605Y64257D01*
X781587Y64355D01*
X781574Y64453D01*
X781565Y64552D01*
X781559Y64651D01*
X781557Y64751D01*
X781558Y64751D02*
X781558Y67347D01*
D12*
X636290Y367150D02*
X430510Y367150D01*
X636290Y367150D02*
X636290Y344050D01*
X430510Y344050D01*
X430510Y367150D01*
D11*
X444359Y341249D02*
X440055Y337806D01*
X444359Y341249D02*
X444359Y325755D01*
X440055Y325755D02*
X448663Y325755D01*
D13*
X424942Y343408D02*
X413258Y343408D01*
X413258Y346654D01*
X413260Y346767D01*
X413266Y346880D01*
X413276Y346993D01*
X413290Y347106D01*
X413307Y347218D01*
X413329Y347329D01*
X413354Y347439D01*
X413384Y347549D01*
X413417Y347657D01*
X413454Y347764D01*
X413494Y347870D01*
X413539Y347974D01*
X413587Y348077D01*
X413638Y348178D01*
X413693Y348277D01*
X413751Y348374D01*
X413813Y348469D01*
X413878Y348562D01*
X413946Y348652D01*
X414017Y348740D01*
X414092Y348826D01*
X414169Y348909D01*
X414249Y348989D01*
X414332Y349066D01*
X414418Y349141D01*
X414506Y349212D01*
X414596Y349280D01*
X414689Y349345D01*
X414784Y349407D01*
X414881Y349465D01*
X414980Y349520D01*
X415081Y349571D01*
X415184Y349619D01*
X415288Y349664D01*
X415394Y349704D01*
X415501Y349741D01*
X415609Y349774D01*
X415719Y349804D01*
X415829Y349829D01*
X415940Y349851D01*
X416052Y349868D01*
X416165Y349882D01*
X416278Y349892D01*
X416391Y349898D01*
X416504Y349900D01*
X416617Y349898D01*
X416730Y349892D01*
X416843Y349882D01*
X416956Y349868D01*
X417068Y349851D01*
X417179Y349829D01*
X417289Y349804D01*
X417399Y349774D01*
X417507Y349741D01*
X417614Y349704D01*
X417720Y349664D01*
X417824Y349619D01*
X417927Y349571D01*
X418028Y349520D01*
X418127Y349465D01*
X418224Y349407D01*
X418319Y349345D01*
X418412Y349280D01*
X418502Y349212D01*
X418590Y349141D01*
X418676Y349066D01*
X418759Y348989D01*
X418839Y348909D01*
X418916Y348826D01*
X418991Y348740D01*
X419062Y348652D01*
X419130Y348562D01*
X419195Y348469D01*
X419257Y348374D01*
X419315Y348277D01*
X419370Y348178D01*
X419421Y348077D01*
X419469Y347974D01*
X419514Y347870D01*
X419554Y347764D01*
X419591Y347657D01*
X419624Y347549D01*
X419654Y347439D01*
X419679Y347329D01*
X419701Y347218D01*
X419718Y347106D01*
X419732Y346993D01*
X419742Y346880D01*
X419748Y346767D01*
X419750Y346654D01*
X419749Y346654D02*
X419749Y343408D01*
X424942Y354669D02*
X413258Y354669D01*
X413258Y357914D01*
X413260Y358027D01*
X413266Y358140D01*
X413276Y358253D01*
X413290Y358366D01*
X413307Y358478D01*
X413329Y358589D01*
X413354Y358699D01*
X413384Y358809D01*
X413417Y358917D01*
X413454Y359024D01*
X413494Y359130D01*
X413539Y359234D01*
X413587Y359337D01*
X413638Y359438D01*
X413693Y359537D01*
X413751Y359634D01*
X413813Y359729D01*
X413878Y359822D01*
X413946Y359912D01*
X414017Y360000D01*
X414092Y360086D01*
X414169Y360169D01*
X414249Y360249D01*
X414332Y360326D01*
X414418Y360401D01*
X414506Y360472D01*
X414596Y360540D01*
X414689Y360605D01*
X414784Y360667D01*
X414881Y360725D01*
X414980Y360780D01*
X415081Y360831D01*
X415184Y360879D01*
X415288Y360924D01*
X415394Y360964D01*
X415501Y361001D01*
X415609Y361034D01*
X415719Y361064D01*
X415829Y361089D01*
X415940Y361111D01*
X416052Y361128D01*
X416165Y361142D01*
X416278Y361152D01*
X416391Y361158D01*
X416504Y361160D01*
X421696Y361160D01*
X421809Y361158D01*
X421922Y361152D01*
X422035Y361142D01*
X422148Y361128D01*
X422260Y361111D01*
X422371Y361089D01*
X422481Y361064D01*
X422591Y361034D01*
X422699Y361001D01*
X422806Y360964D01*
X422912Y360924D01*
X423016Y360879D01*
X423119Y360831D01*
X423220Y360780D01*
X423319Y360725D01*
X423416Y360667D01*
X423511Y360605D01*
X423604Y360540D01*
X423694Y360472D01*
X423782Y360401D01*
X423868Y360326D01*
X423951Y360249D01*
X424031Y360169D01*
X424108Y360086D01*
X424183Y360000D01*
X424254Y359912D01*
X424322Y359822D01*
X424387Y359729D01*
X424449Y359634D01*
X424507Y359537D01*
X424562Y359438D01*
X424613Y359337D01*
X424661Y359234D01*
X424706Y359130D01*
X424746Y359024D01*
X424783Y358917D01*
X424816Y358809D01*
X424846Y358699D01*
X424871Y358589D01*
X424893Y358478D01*
X424910Y358366D01*
X424924Y358253D01*
X424934Y358140D01*
X424940Y358027D01*
X424942Y357914D01*
X424942Y354669D01*
D10*
X156210Y558800D02*
X148590Y558800D01*
X156210Y558800D02*
X156332Y558802D01*
X156454Y558808D01*
X156576Y558818D01*
X156697Y558831D01*
X156818Y558849D01*
X156938Y558870D01*
X157058Y558896D01*
X157176Y558925D01*
X157294Y558957D01*
X157411Y558994D01*
X157526Y559034D01*
X157640Y559078D01*
X157752Y559126D01*
X157863Y559177D01*
X157972Y559232D01*
X158080Y559290D01*
X158185Y559352D01*
X158288Y559417D01*
X158390Y559485D01*
X158489Y559557D01*
X158585Y559631D01*
X158680Y559709D01*
X158771Y559790D01*
X158861Y559873D01*
X158947Y559959D01*
X159030Y560049D01*
X159111Y560140D01*
X159189Y560235D01*
X159263Y560331D01*
X159335Y560430D01*
X159403Y560532D01*
X159468Y560635D01*
X159530Y560740D01*
X159588Y560848D01*
X159643Y560957D01*
X159694Y561068D01*
X159742Y561180D01*
X159786Y561294D01*
X159826Y561409D01*
X159863Y561526D01*
X159895Y561644D01*
X159924Y561762D01*
X159950Y561882D01*
X159971Y562002D01*
X159989Y562123D01*
X160002Y562244D01*
X160012Y562366D01*
X160018Y562488D01*
X160020Y562610D01*
X144780Y605790D02*
X144782Y605912D01*
X144788Y606034D01*
X144798Y606156D01*
X144811Y606277D01*
X144829Y606398D01*
X144850Y606518D01*
X144876Y606638D01*
X144905Y606756D01*
X144937Y606874D01*
X144974Y606991D01*
X145014Y607106D01*
X145058Y607220D01*
X145106Y607332D01*
X145157Y607443D01*
X145212Y607552D01*
X145270Y607660D01*
X145332Y607765D01*
X145397Y607868D01*
X145465Y607970D01*
X145537Y608069D01*
X145611Y608165D01*
X145689Y608260D01*
X145770Y608351D01*
X145853Y608441D01*
X145939Y608527D01*
X146029Y608610D01*
X146120Y608691D01*
X146215Y608769D01*
X146311Y608843D01*
X146410Y608915D01*
X146512Y608983D01*
X146615Y609048D01*
X146720Y609110D01*
X146828Y609168D01*
X146937Y609223D01*
X147048Y609274D01*
X147160Y609322D01*
X147274Y609366D01*
X147389Y609406D01*
X147506Y609443D01*
X147624Y609475D01*
X147742Y609504D01*
X147862Y609530D01*
X147982Y609551D01*
X148103Y609569D01*
X148224Y609582D01*
X148346Y609592D01*
X148468Y609598D01*
X148590Y609600D01*
X144780Y562610D02*
X144782Y562488D01*
X144788Y562366D01*
X144798Y562244D01*
X144811Y562123D01*
X144829Y562002D01*
X144850Y561882D01*
X144876Y561762D01*
X144905Y561644D01*
X144937Y561526D01*
X144974Y561409D01*
X145014Y561294D01*
X145058Y561180D01*
X145106Y561068D01*
X145157Y560957D01*
X145212Y560848D01*
X145270Y560740D01*
X145332Y560635D01*
X145397Y560532D01*
X145465Y560430D01*
X145537Y560331D01*
X145611Y560235D01*
X145689Y560140D01*
X145770Y560049D01*
X145853Y559959D01*
X145939Y559873D01*
X146029Y559790D01*
X146120Y559709D01*
X146215Y559631D01*
X146311Y559557D01*
X146410Y559485D01*
X146512Y559417D01*
X146615Y559352D01*
X146720Y559290D01*
X146828Y559232D01*
X146937Y559177D01*
X147048Y559126D01*
X147160Y559078D01*
X147274Y559034D01*
X147389Y558994D01*
X147506Y558957D01*
X147624Y558925D01*
X147742Y558896D01*
X147862Y558870D01*
X147982Y558849D01*
X148103Y558831D01*
X148224Y558818D01*
X148346Y558808D01*
X148468Y558802D01*
X148590Y558800D01*
X160020Y605790D02*
X160018Y605912D01*
X160012Y606034D01*
X160002Y606156D01*
X159989Y606277D01*
X159971Y606398D01*
X159950Y606518D01*
X159924Y606638D01*
X159895Y606756D01*
X159863Y606874D01*
X159826Y606991D01*
X159786Y607106D01*
X159742Y607220D01*
X159694Y607332D01*
X159643Y607443D01*
X159588Y607552D01*
X159530Y607660D01*
X159468Y607765D01*
X159403Y607868D01*
X159335Y607970D01*
X159263Y608069D01*
X159189Y608165D01*
X159111Y608260D01*
X159030Y608351D01*
X158947Y608441D01*
X158861Y608527D01*
X158771Y608610D01*
X158680Y608691D01*
X158585Y608769D01*
X158489Y608843D01*
X158390Y608915D01*
X158288Y608983D01*
X158185Y609048D01*
X158080Y609110D01*
X157972Y609168D01*
X157863Y609223D01*
X157752Y609274D01*
X157640Y609322D01*
X157526Y609366D01*
X157411Y609406D01*
X157294Y609443D01*
X157176Y609475D01*
X157058Y609504D01*
X156938Y609530D01*
X156818Y609551D01*
X156697Y609569D01*
X156576Y609582D01*
X156454Y609592D01*
X156332Y609598D01*
X156210Y609600D01*
X160020Y568960D02*
X160020Y562610D01*
X160020Y568960D02*
X158750Y570230D01*
X144780Y568960D02*
X144780Y562610D01*
X144780Y568960D02*
X146050Y570230D01*
X158750Y598170D02*
X160020Y599440D01*
X158750Y598170D02*
X158750Y570230D01*
X146050Y598170D02*
X144780Y599440D01*
X146050Y598170D02*
X146050Y570230D01*
X148590Y609600D02*
X156210Y609600D01*
X160020Y605790D02*
X160020Y599440D01*
X144780Y599440D02*
X144780Y605790D01*
D14*
X152400Y551815D03*
X152400Y616585D03*
D11*
X178435Y616668D02*
X189865Y616668D01*
X178435Y616668D02*
X178435Y619843D01*
X178437Y619954D01*
X178443Y620064D01*
X178452Y620175D01*
X178466Y620285D01*
X178483Y620394D01*
X178504Y620503D01*
X178529Y620611D01*
X178558Y620718D01*
X178590Y620824D01*
X178626Y620929D01*
X178666Y621032D01*
X178709Y621134D01*
X178756Y621235D01*
X178807Y621334D01*
X178860Y621431D01*
X178917Y621525D01*
X178978Y621618D01*
X179041Y621709D01*
X179108Y621798D01*
X179178Y621884D01*
X179251Y621967D01*
X179326Y622049D01*
X179404Y622127D01*
X179486Y622202D01*
X179569Y622275D01*
X179655Y622345D01*
X179744Y622412D01*
X179835Y622475D01*
X179928Y622536D01*
X180023Y622593D01*
X180119Y622646D01*
X180218Y622697D01*
X180319Y622744D01*
X180421Y622787D01*
X180524Y622827D01*
X180629Y622863D01*
X180735Y622895D01*
X180842Y622924D01*
X180950Y622949D01*
X181059Y622970D01*
X181168Y622987D01*
X181278Y623001D01*
X181389Y623010D01*
X181499Y623016D01*
X181610Y623018D01*
X181721Y623016D01*
X181831Y623010D01*
X181942Y623001D01*
X182052Y622987D01*
X182161Y622970D01*
X182270Y622949D01*
X182378Y622924D01*
X182485Y622895D01*
X182591Y622863D01*
X182696Y622827D01*
X182799Y622787D01*
X182901Y622744D01*
X183002Y622697D01*
X183101Y622646D01*
X183198Y622593D01*
X183292Y622536D01*
X183385Y622475D01*
X183476Y622412D01*
X183565Y622345D01*
X183651Y622275D01*
X183734Y622202D01*
X183816Y622127D01*
X183894Y622049D01*
X183969Y621967D01*
X184042Y621884D01*
X184112Y621798D01*
X184179Y621709D01*
X184242Y621618D01*
X184303Y621525D01*
X184360Y621431D01*
X184413Y621334D01*
X184464Y621235D01*
X184511Y621134D01*
X184554Y621032D01*
X184594Y620929D01*
X184630Y620824D01*
X184662Y620718D01*
X184691Y620611D01*
X184716Y620503D01*
X184737Y620394D01*
X184754Y620285D01*
X184768Y620175D01*
X184777Y620064D01*
X184783Y619954D01*
X184785Y619843D01*
X184785Y616668D01*
X184785Y620478D02*
X189865Y623018D01*
X180975Y628015D02*
X178435Y631190D01*
X189865Y631190D01*
X189865Y628015D02*
X189865Y634365D01*
D10*
X118110Y609600D02*
X110490Y609600D01*
X110368Y609598D01*
X110246Y609592D01*
X110124Y609582D01*
X110003Y609569D01*
X109882Y609551D01*
X109762Y609530D01*
X109642Y609504D01*
X109524Y609475D01*
X109406Y609443D01*
X109289Y609406D01*
X109174Y609366D01*
X109060Y609322D01*
X108948Y609274D01*
X108837Y609223D01*
X108728Y609168D01*
X108620Y609110D01*
X108515Y609048D01*
X108412Y608983D01*
X108310Y608915D01*
X108211Y608843D01*
X108115Y608769D01*
X108020Y608691D01*
X107929Y608610D01*
X107839Y608527D01*
X107753Y608441D01*
X107670Y608351D01*
X107589Y608260D01*
X107511Y608165D01*
X107437Y608069D01*
X107365Y607970D01*
X107297Y607868D01*
X107232Y607765D01*
X107170Y607660D01*
X107112Y607552D01*
X107057Y607443D01*
X107006Y607332D01*
X106958Y607220D01*
X106914Y607106D01*
X106874Y606991D01*
X106837Y606874D01*
X106805Y606756D01*
X106776Y606638D01*
X106750Y606518D01*
X106729Y606398D01*
X106711Y606277D01*
X106698Y606156D01*
X106688Y606034D01*
X106682Y605912D01*
X106680Y605790D01*
X121920Y562610D02*
X121918Y562488D01*
X121912Y562366D01*
X121902Y562244D01*
X121889Y562123D01*
X121871Y562002D01*
X121850Y561882D01*
X121824Y561762D01*
X121795Y561644D01*
X121763Y561526D01*
X121726Y561409D01*
X121686Y561294D01*
X121642Y561180D01*
X121594Y561068D01*
X121543Y560957D01*
X121488Y560848D01*
X121430Y560740D01*
X121368Y560635D01*
X121303Y560532D01*
X121235Y560430D01*
X121163Y560331D01*
X121089Y560235D01*
X121011Y560140D01*
X120930Y560049D01*
X120847Y559959D01*
X120761Y559873D01*
X120671Y559790D01*
X120580Y559709D01*
X120485Y559631D01*
X120389Y559557D01*
X120290Y559485D01*
X120188Y559417D01*
X120085Y559352D01*
X119980Y559290D01*
X119872Y559232D01*
X119763Y559177D01*
X119652Y559126D01*
X119540Y559078D01*
X119426Y559034D01*
X119311Y558994D01*
X119194Y558957D01*
X119076Y558925D01*
X118958Y558896D01*
X118838Y558870D01*
X118718Y558849D01*
X118597Y558831D01*
X118476Y558818D01*
X118354Y558808D01*
X118232Y558802D01*
X118110Y558800D01*
X121920Y605790D02*
X121918Y605912D01*
X121912Y606034D01*
X121902Y606156D01*
X121889Y606277D01*
X121871Y606398D01*
X121850Y606518D01*
X121824Y606638D01*
X121795Y606756D01*
X121763Y606874D01*
X121726Y606991D01*
X121686Y607106D01*
X121642Y607220D01*
X121594Y607332D01*
X121543Y607443D01*
X121488Y607552D01*
X121430Y607660D01*
X121368Y607765D01*
X121303Y607868D01*
X121235Y607970D01*
X121163Y608069D01*
X121089Y608165D01*
X121011Y608260D01*
X120930Y608351D01*
X120847Y608441D01*
X120761Y608527D01*
X120671Y608610D01*
X120580Y608691D01*
X120485Y608769D01*
X120389Y608843D01*
X120290Y608915D01*
X120188Y608983D01*
X120085Y609048D01*
X119980Y609110D01*
X119872Y609168D01*
X119763Y609223D01*
X119652Y609274D01*
X119540Y609322D01*
X119426Y609366D01*
X119311Y609406D01*
X119194Y609443D01*
X119076Y609475D01*
X118958Y609504D01*
X118838Y609530D01*
X118718Y609551D01*
X118597Y609569D01*
X118476Y609582D01*
X118354Y609592D01*
X118232Y609598D01*
X118110Y609600D01*
X106680Y562610D02*
X106682Y562488D01*
X106688Y562366D01*
X106698Y562244D01*
X106711Y562123D01*
X106729Y562002D01*
X106750Y561882D01*
X106776Y561762D01*
X106805Y561644D01*
X106837Y561526D01*
X106874Y561409D01*
X106914Y561294D01*
X106958Y561180D01*
X107006Y561068D01*
X107057Y560957D01*
X107112Y560848D01*
X107170Y560740D01*
X107232Y560635D01*
X107297Y560532D01*
X107365Y560430D01*
X107437Y560331D01*
X107511Y560235D01*
X107589Y560140D01*
X107670Y560049D01*
X107753Y559959D01*
X107839Y559873D01*
X107929Y559790D01*
X108020Y559709D01*
X108115Y559631D01*
X108211Y559557D01*
X108310Y559485D01*
X108412Y559417D01*
X108515Y559352D01*
X108620Y559290D01*
X108728Y559232D01*
X108837Y559177D01*
X108948Y559126D01*
X109060Y559078D01*
X109174Y559034D01*
X109289Y558994D01*
X109406Y558957D01*
X109524Y558925D01*
X109642Y558896D01*
X109762Y558870D01*
X109882Y558849D01*
X110003Y558831D01*
X110124Y558818D01*
X110246Y558808D01*
X110368Y558802D01*
X110490Y558800D01*
X106680Y599440D02*
X106680Y605790D01*
X106680Y599440D02*
X107950Y598170D01*
X121920Y599440D02*
X121920Y605790D01*
X121920Y599440D02*
X120650Y598170D01*
X107950Y570230D02*
X106680Y568960D01*
X107950Y570230D02*
X107950Y598170D01*
X120650Y570230D02*
X121920Y568960D01*
X120650Y570230D02*
X120650Y598170D01*
X118110Y558800D02*
X110490Y558800D01*
X106680Y562610D02*
X106680Y568960D01*
X121920Y568960D02*
X121920Y562610D01*
D14*
X114300Y616585D03*
X114300Y551815D03*
D11*
X88265Y534035D02*
X76835Y534035D01*
X76835Y537210D01*
X76837Y537321D01*
X76843Y537431D01*
X76852Y537542D01*
X76866Y537652D01*
X76883Y537761D01*
X76904Y537870D01*
X76929Y537978D01*
X76958Y538085D01*
X76990Y538191D01*
X77026Y538296D01*
X77066Y538399D01*
X77109Y538501D01*
X77156Y538602D01*
X77207Y538701D01*
X77260Y538798D01*
X77317Y538892D01*
X77378Y538985D01*
X77441Y539076D01*
X77508Y539165D01*
X77578Y539251D01*
X77651Y539334D01*
X77726Y539416D01*
X77804Y539494D01*
X77886Y539569D01*
X77969Y539642D01*
X78055Y539712D01*
X78144Y539779D01*
X78235Y539842D01*
X78328Y539903D01*
X78423Y539960D01*
X78519Y540013D01*
X78618Y540064D01*
X78719Y540111D01*
X78821Y540154D01*
X78924Y540194D01*
X79029Y540230D01*
X79135Y540262D01*
X79242Y540291D01*
X79350Y540316D01*
X79459Y540337D01*
X79568Y540354D01*
X79678Y540368D01*
X79789Y540377D01*
X79899Y540383D01*
X80010Y540385D01*
X80121Y540383D01*
X80231Y540377D01*
X80342Y540368D01*
X80452Y540354D01*
X80561Y540337D01*
X80670Y540316D01*
X80778Y540291D01*
X80885Y540262D01*
X80991Y540230D01*
X81096Y540194D01*
X81199Y540154D01*
X81301Y540111D01*
X81402Y540064D01*
X81501Y540013D01*
X81598Y539960D01*
X81692Y539903D01*
X81785Y539842D01*
X81876Y539779D01*
X81965Y539712D01*
X82051Y539642D01*
X82134Y539569D01*
X82216Y539494D01*
X82294Y539416D01*
X82369Y539334D01*
X82442Y539251D01*
X82512Y539165D01*
X82579Y539076D01*
X82642Y538985D01*
X82703Y538892D01*
X82760Y538798D01*
X82813Y538701D01*
X82864Y538602D01*
X82911Y538501D01*
X82954Y538399D01*
X82994Y538296D01*
X83030Y538191D01*
X83062Y538085D01*
X83091Y537978D01*
X83116Y537870D01*
X83137Y537761D01*
X83154Y537652D01*
X83168Y537542D01*
X83177Y537431D01*
X83183Y537321D01*
X83185Y537210D01*
X83185Y534035D01*
X83185Y537845D02*
X88265Y540385D01*
X79693Y551733D02*
X79589Y551731D01*
X79484Y551725D01*
X79380Y551716D01*
X79277Y551703D01*
X79174Y551685D01*
X79072Y551665D01*
X78970Y551640D01*
X78870Y551612D01*
X78770Y551580D01*
X78672Y551544D01*
X78575Y551505D01*
X78480Y551463D01*
X78386Y551417D01*
X78294Y551367D01*
X78204Y551315D01*
X78116Y551259D01*
X78030Y551199D01*
X77946Y551137D01*
X77865Y551072D01*
X77786Y551004D01*
X77709Y550932D01*
X77636Y550859D01*
X77564Y550782D01*
X77496Y550703D01*
X77431Y550622D01*
X77369Y550538D01*
X77309Y550452D01*
X77253Y550364D01*
X77201Y550274D01*
X77151Y550182D01*
X77105Y550088D01*
X77063Y549993D01*
X77024Y549896D01*
X76988Y549798D01*
X76956Y549698D01*
X76928Y549598D01*
X76903Y549496D01*
X76883Y549394D01*
X76865Y549291D01*
X76852Y549188D01*
X76843Y549084D01*
X76837Y548979D01*
X76835Y548875D01*
X76837Y548757D01*
X76843Y548638D01*
X76852Y548520D01*
X76865Y548403D01*
X76883Y548286D01*
X76903Y548169D01*
X76928Y548053D01*
X76956Y547938D01*
X76989Y547825D01*
X77024Y547712D01*
X77064Y547600D01*
X77106Y547490D01*
X77153Y547381D01*
X77203Y547273D01*
X77256Y547168D01*
X77313Y547064D01*
X77373Y546962D01*
X77436Y546862D01*
X77503Y546764D01*
X77572Y546668D01*
X77645Y546575D01*
X77721Y546484D01*
X77799Y546395D01*
X77881Y546309D01*
X77965Y546226D01*
X78051Y546145D01*
X78141Y546068D01*
X78232Y545993D01*
X78326Y545921D01*
X78423Y545852D01*
X78521Y545787D01*
X78622Y545724D01*
X78725Y545665D01*
X78829Y545609D01*
X78935Y545557D01*
X79043Y545508D01*
X79152Y545463D01*
X79263Y545421D01*
X79375Y545383D01*
X81915Y550780D02*
X81840Y550856D01*
X81761Y550931D01*
X81680Y551002D01*
X81596Y551071D01*
X81510Y551136D01*
X81422Y551198D01*
X81332Y551258D01*
X81240Y551314D01*
X81145Y551367D01*
X81049Y551416D01*
X80951Y551462D01*
X80852Y551505D01*
X80751Y551544D01*
X80649Y551579D01*
X80546Y551611D01*
X80442Y551639D01*
X80337Y551664D01*
X80230Y551685D01*
X80124Y551702D01*
X80017Y551715D01*
X79909Y551724D01*
X79801Y551730D01*
X79693Y551732D01*
X81915Y550780D02*
X88265Y545382D01*
X88265Y551732D01*
D10*
X351790Y609600D02*
X359410Y609600D01*
X351790Y609600D02*
X351668Y609598D01*
X351546Y609592D01*
X351424Y609582D01*
X351303Y609569D01*
X351182Y609551D01*
X351062Y609530D01*
X350942Y609504D01*
X350824Y609475D01*
X350706Y609443D01*
X350589Y609406D01*
X350474Y609366D01*
X350360Y609322D01*
X350248Y609274D01*
X350137Y609223D01*
X350028Y609168D01*
X349920Y609110D01*
X349815Y609048D01*
X349712Y608983D01*
X349610Y608915D01*
X349511Y608843D01*
X349415Y608769D01*
X349320Y608691D01*
X349229Y608610D01*
X349139Y608527D01*
X349053Y608441D01*
X348970Y608351D01*
X348889Y608260D01*
X348811Y608165D01*
X348737Y608069D01*
X348665Y607970D01*
X348597Y607868D01*
X348532Y607765D01*
X348470Y607660D01*
X348412Y607552D01*
X348357Y607443D01*
X348306Y607332D01*
X348258Y607220D01*
X348214Y607106D01*
X348174Y606991D01*
X348137Y606874D01*
X348105Y606756D01*
X348076Y606638D01*
X348050Y606518D01*
X348029Y606398D01*
X348011Y606277D01*
X347998Y606156D01*
X347988Y606034D01*
X347982Y605912D01*
X347980Y605790D01*
X363220Y562610D02*
X363218Y562488D01*
X363212Y562366D01*
X363202Y562244D01*
X363189Y562123D01*
X363171Y562002D01*
X363150Y561882D01*
X363124Y561762D01*
X363095Y561644D01*
X363063Y561526D01*
X363026Y561409D01*
X362986Y561294D01*
X362942Y561180D01*
X362894Y561068D01*
X362843Y560957D01*
X362788Y560848D01*
X362730Y560740D01*
X362668Y560635D01*
X362603Y560532D01*
X362535Y560430D01*
X362463Y560331D01*
X362389Y560235D01*
X362311Y560140D01*
X362230Y560049D01*
X362147Y559959D01*
X362061Y559873D01*
X361971Y559790D01*
X361880Y559709D01*
X361785Y559631D01*
X361689Y559557D01*
X361590Y559485D01*
X361488Y559417D01*
X361385Y559352D01*
X361280Y559290D01*
X361172Y559232D01*
X361063Y559177D01*
X360952Y559126D01*
X360840Y559078D01*
X360726Y559034D01*
X360611Y558994D01*
X360494Y558957D01*
X360376Y558925D01*
X360258Y558896D01*
X360138Y558870D01*
X360018Y558849D01*
X359897Y558831D01*
X359776Y558818D01*
X359654Y558808D01*
X359532Y558802D01*
X359410Y558800D01*
X363220Y605790D02*
X363218Y605912D01*
X363212Y606034D01*
X363202Y606156D01*
X363189Y606277D01*
X363171Y606398D01*
X363150Y606518D01*
X363124Y606638D01*
X363095Y606756D01*
X363063Y606874D01*
X363026Y606991D01*
X362986Y607106D01*
X362942Y607220D01*
X362894Y607332D01*
X362843Y607443D01*
X362788Y607552D01*
X362730Y607660D01*
X362668Y607765D01*
X362603Y607868D01*
X362535Y607970D01*
X362463Y608069D01*
X362389Y608165D01*
X362311Y608260D01*
X362230Y608351D01*
X362147Y608441D01*
X362061Y608527D01*
X361971Y608610D01*
X361880Y608691D01*
X361785Y608769D01*
X361689Y608843D01*
X361590Y608915D01*
X361488Y608983D01*
X361385Y609048D01*
X361280Y609110D01*
X361172Y609168D01*
X361063Y609223D01*
X360952Y609274D01*
X360840Y609322D01*
X360726Y609366D01*
X360611Y609406D01*
X360494Y609443D01*
X360376Y609475D01*
X360258Y609504D01*
X360138Y609530D01*
X360018Y609551D01*
X359897Y609569D01*
X359776Y609582D01*
X359654Y609592D01*
X359532Y609598D01*
X359410Y609600D01*
X347980Y562610D02*
X347982Y562488D01*
X347988Y562366D01*
X347998Y562244D01*
X348011Y562123D01*
X348029Y562002D01*
X348050Y561882D01*
X348076Y561762D01*
X348105Y561644D01*
X348137Y561526D01*
X348174Y561409D01*
X348214Y561294D01*
X348258Y561180D01*
X348306Y561068D01*
X348357Y560957D01*
X348412Y560848D01*
X348470Y560740D01*
X348532Y560635D01*
X348597Y560532D01*
X348665Y560430D01*
X348737Y560331D01*
X348811Y560235D01*
X348889Y560140D01*
X348970Y560049D01*
X349053Y559959D01*
X349139Y559873D01*
X349229Y559790D01*
X349320Y559709D01*
X349415Y559631D01*
X349511Y559557D01*
X349610Y559485D01*
X349712Y559417D01*
X349815Y559352D01*
X349920Y559290D01*
X350028Y559232D01*
X350137Y559177D01*
X350248Y559126D01*
X350360Y559078D01*
X350474Y559034D01*
X350589Y558994D01*
X350706Y558957D01*
X350824Y558925D01*
X350942Y558896D01*
X351062Y558870D01*
X351182Y558849D01*
X351303Y558831D01*
X351424Y558818D01*
X351546Y558808D01*
X351668Y558802D01*
X351790Y558800D01*
X347980Y599440D02*
X347980Y605790D01*
X347980Y599440D02*
X349250Y598170D01*
X363220Y599440D02*
X363220Y605790D01*
X363220Y599440D02*
X361950Y598170D01*
X349250Y570230D02*
X347980Y568960D01*
X349250Y570230D02*
X349250Y598170D01*
X361950Y570230D02*
X363220Y568960D01*
X361950Y570230D02*
X361950Y598170D01*
X359410Y558800D02*
X351790Y558800D01*
X347980Y562610D02*
X347980Y568960D01*
X363220Y568960D02*
X363220Y562610D01*
D14*
X355600Y616585D03*
X355600Y551815D03*
D11*
X329565Y534035D02*
X318135Y534035D01*
X318135Y537210D01*
X318137Y537321D01*
X318143Y537431D01*
X318152Y537542D01*
X318166Y537652D01*
X318183Y537761D01*
X318204Y537870D01*
X318229Y537978D01*
X318258Y538085D01*
X318290Y538191D01*
X318326Y538296D01*
X318366Y538399D01*
X318409Y538501D01*
X318456Y538602D01*
X318507Y538701D01*
X318560Y538798D01*
X318617Y538892D01*
X318678Y538985D01*
X318741Y539076D01*
X318808Y539165D01*
X318878Y539251D01*
X318951Y539334D01*
X319026Y539416D01*
X319104Y539494D01*
X319186Y539569D01*
X319269Y539642D01*
X319355Y539712D01*
X319444Y539779D01*
X319535Y539842D01*
X319628Y539903D01*
X319723Y539960D01*
X319819Y540013D01*
X319918Y540064D01*
X320019Y540111D01*
X320121Y540154D01*
X320224Y540194D01*
X320329Y540230D01*
X320435Y540262D01*
X320542Y540291D01*
X320650Y540316D01*
X320759Y540337D01*
X320868Y540354D01*
X320978Y540368D01*
X321089Y540377D01*
X321199Y540383D01*
X321310Y540385D01*
X321421Y540383D01*
X321531Y540377D01*
X321642Y540368D01*
X321752Y540354D01*
X321861Y540337D01*
X321970Y540316D01*
X322078Y540291D01*
X322185Y540262D01*
X322291Y540230D01*
X322396Y540194D01*
X322499Y540154D01*
X322601Y540111D01*
X322702Y540064D01*
X322801Y540013D01*
X322898Y539960D01*
X322992Y539903D01*
X323085Y539842D01*
X323176Y539779D01*
X323265Y539712D01*
X323351Y539642D01*
X323434Y539569D01*
X323516Y539494D01*
X323594Y539416D01*
X323669Y539334D01*
X323742Y539251D01*
X323812Y539165D01*
X323879Y539076D01*
X323942Y538985D01*
X324003Y538892D01*
X324060Y538798D01*
X324113Y538701D01*
X324164Y538602D01*
X324211Y538501D01*
X324254Y538399D01*
X324294Y538296D01*
X324330Y538191D01*
X324362Y538085D01*
X324391Y537978D01*
X324416Y537870D01*
X324437Y537761D01*
X324454Y537652D01*
X324468Y537542D01*
X324477Y537431D01*
X324483Y537321D01*
X324485Y537210D01*
X324485Y534035D01*
X324485Y537845D02*
X329565Y540385D01*
X329565Y545382D02*
X329565Y548557D01*
X329563Y548668D01*
X329557Y548778D01*
X329548Y548889D01*
X329534Y548999D01*
X329517Y549108D01*
X329496Y549217D01*
X329471Y549325D01*
X329442Y549432D01*
X329410Y549538D01*
X329374Y549643D01*
X329334Y549746D01*
X329291Y549848D01*
X329244Y549949D01*
X329193Y550048D01*
X329140Y550145D01*
X329083Y550239D01*
X329022Y550332D01*
X328959Y550423D01*
X328892Y550512D01*
X328822Y550598D01*
X328749Y550681D01*
X328674Y550763D01*
X328596Y550841D01*
X328514Y550916D01*
X328431Y550989D01*
X328345Y551059D01*
X328256Y551126D01*
X328165Y551189D01*
X328072Y551250D01*
X327978Y551307D01*
X327881Y551360D01*
X327782Y551411D01*
X327681Y551458D01*
X327579Y551501D01*
X327476Y551541D01*
X327371Y551577D01*
X327265Y551609D01*
X327158Y551638D01*
X327050Y551663D01*
X326941Y551684D01*
X326832Y551701D01*
X326722Y551715D01*
X326611Y551724D01*
X326501Y551730D01*
X326390Y551732D01*
X326279Y551730D01*
X326169Y551724D01*
X326058Y551715D01*
X325948Y551701D01*
X325839Y551684D01*
X325730Y551663D01*
X325622Y551638D01*
X325515Y551609D01*
X325409Y551577D01*
X325304Y551541D01*
X325201Y551501D01*
X325099Y551458D01*
X324998Y551411D01*
X324899Y551360D01*
X324803Y551307D01*
X324708Y551250D01*
X324615Y551189D01*
X324524Y551126D01*
X324435Y551059D01*
X324349Y550989D01*
X324266Y550916D01*
X324184Y550841D01*
X324106Y550763D01*
X324031Y550681D01*
X323958Y550598D01*
X323888Y550512D01*
X323821Y550423D01*
X323758Y550332D01*
X323697Y550239D01*
X323640Y550145D01*
X323587Y550048D01*
X323536Y549949D01*
X323489Y549848D01*
X323446Y549746D01*
X323406Y549643D01*
X323370Y549538D01*
X323338Y549432D01*
X323309Y549325D01*
X323284Y549217D01*
X323263Y549108D01*
X323246Y548999D01*
X323232Y548889D01*
X323223Y548778D01*
X323217Y548668D01*
X323215Y548557D01*
X318135Y549192D02*
X318135Y545382D01*
X318135Y549192D02*
X318137Y549292D01*
X318143Y549391D01*
X318153Y549491D01*
X318166Y549589D01*
X318184Y549688D01*
X318205Y549785D01*
X318230Y549881D01*
X318259Y549977D01*
X318292Y550071D01*
X318328Y550164D01*
X318368Y550255D01*
X318412Y550345D01*
X318459Y550433D01*
X318509Y550519D01*
X318563Y550603D01*
X318620Y550685D01*
X318680Y550764D01*
X318744Y550842D01*
X318810Y550916D01*
X318879Y550988D01*
X318951Y551057D01*
X319025Y551123D01*
X319103Y551187D01*
X319182Y551247D01*
X319264Y551304D01*
X319348Y551358D01*
X319434Y551408D01*
X319522Y551455D01*
X319612Y551499D01*
X319703Y551539D01*
X319796Y551575D01*
X319890Y551608D01*
X319986Y551637D01*
X320082Y551662D01*
X320179Y551683D01*
X320278Y551701D01*
X320376Y551714D01*
X320476Y551724D01*
X320575Y551730D01*
X320675Y551732D01*
X320775Y551730D01*
X320874Y551724D01*
X320974Y551714D01*
X321072Y551701D01*
X321171Y551683D01*
X321268Y551662D01*
X321364Y551637D01*
X321460Y551608D01*
X321554Y551575D01*
X321647Y551539D01*
X321738Y551499D01*
X321828Y551455D01*
X321916Y551408D01*
X322002Y551358D01*
X322086Y551304D01*
X322168Y551247D01*
X322247Y551187D01*
X322325Y551123D01*
X322399Y551057D01*
X322471Y550988D01*
X322540Y550916D01*
X322606Y550842D01*
X322670Y550764D01*
X322730Y550685D01*
X322787Y550603D01*
X322841Y550519D01*
X322891Y550433D01*
X322938Y550345D01*
X322982Y550255D01*
X323022Y550164D01*
X323058Y550071D01*
X323091Y549977D01*
X323120Y549881D01*
X323145Y549785D01*
X323166Y549688D01*
X323184Y549589D01*
X323197Y549491D01*
X323207Y549391D01*
X323213Y549292D01*
X323215Y549192D01*
X323215Y546652D01*
D10*
X295910Y558800D02*
X288290Y558800D01*
X295910Y558800D02*
X296032Y558802D01*
X296154Y558808D01*
X296276Y558818D01*
X296397Y558831D01*
X296518Y558849D01*
X296638Y558870D01*
X296758Y558896D01*
X296876Y558925D01*
X296994Y558957D01*
X297111Y558994D01*
X297226Y559034D01*
X297340Y559078D01*
X297452Y559126D01*
X297563Y559177D01*
X297672Y559232D01*
X297780Y559290D01*
X297885Y559352D01*
X297988Y559417D01*
X298090Y559485D01*
X298189Y559557D01*
X298285Y559631D01*
X298380Y559709D01*
X298471Y559790D01*
X298561Y559873D01*
X298647Y559959D01*
X298730Y560049D01*
X298811Y560140D01*
X298889Y560235D01*
X298963Y560331D01*
X299035Y560430D01*
X299103Y560532D01*
X299168Y560635D01*
X299230Y560740D01*
X299288Y560848D01*
X299343Y560957D01*
X299394Y561068D01*
X299442Y561180D01*
X299486Y561294D01*
X299526Y561409D01*
X299563Y561526D01*
X299595Y561644D01*
X299624Y561762D01*
X299650Y561882D01*
X299671Y562002D01*
X299689Y562123D01*
X299702Y562244D01*
X299712Y562366D01*
X299718Y562488D01*
X299720Y562610D01*
X284480Y605790D02*
X284482Y605912D01*
X284488Y606034D01*
X284498Y606156D01*
X284511Y606277D01*
X284529Y606398D01*
X284550Y606518D01*
X284576Y606638D01*
X284605Y606756D01*
X284637Y606874D01*
X284674Y606991D01*
X284714Y607106D01*
X284758Y607220D01*
X284806Y607332D01*
X284857Y607443D01*
X284912Y607552D01*
X284970Y607660D01*
X285032Y607765D01*
X285097Y607868D01*
X285165Y607970D01*
X285237Y608069D01*
X285311Y608165D01*
X285389Y608260D01*
X285470Y608351D01*
X285553Y608441D01*
X285639Y608527D01*
X285729Y608610D01*
X285820Y608691D01*
X285915Y608769D01*
X286011Y608843D01*
X286110Y608915D01*
X286212Y608983D01*
X286315Y609048D01*
X286420Y609110D01*
X286528Y609168D01*
X286637Y609223D01*
X286748Y609274D01*
X286860Y609322D01*
X286974Y609366D01*
X287089Y609406D01*
X287206Y609443D01*
X287324Y609475D01*
X287442Y609504D01*
X287562Y609530D01*
X287682Y609551D01*
X287803Y609569D01*
X287924Y609582D01*
X288046Y609592D01*
X288168Y609598D01*
X288290Y609600D01*
X284480Y562610D02*
X284482Y562488D01*
X284488Y562366D01*
X284498Y562244D01*
X284511Y562123D01*
X284529Y562002D01*
X284550Y561882D01*
X284576Y561762D01*
X284605Y561644D01*
X284637Y561526D01*
X284674Y561409D01*
X284714Y561294D01*
X284758Y561180D01*
X284806Y561068D01*
X284857Y560957D01*
X284912Y560848D01*
X284970Y560740D01*
X285032Y560635D01*
X285097Y560532D01*
X285165Y560430D01*
X285237Y560331D01*
X285311Y560235D01*
X285389Y560140D01*
X285470Y560049D01*
X285553Y559959D01*
X285639Y559873D01*
X285729Y559790D01*
X285820Y559709D01*
X285915Y559631D01*
X286011Y559557D01*
X286110Y559485D01*
X286212Y559417D01*
X286315Y559352D01*
X286420Y559290D01*
X286528Y559232D01*
X286637Y559177D01*
X286748Y559126D01*
X286860Y559078D01*
X286974Y559034D01*
X287089Y558994D01*
X287206Y558957D01*
X287324Y558925D01*
X287442Y558896D01*
X287562Y558870D01*
X287682Y558849D01*
X287803Y558831D01*
X287924Y558818D01*
X288046Y558808D01*
X288168Y558802D01*
X288290Y558800D01*
X299720Y605790D02*
X299718Y605912D01*
X299712Y606034D01*
X299702Y606156D01*
X299689Y606277D01*
X299671Y606398D01*
X299650Y606518D01*
X299624Y606638D01*
X299595Y606756D01*
X299563Y606874D01*
X299526Y606991D01*
X299486Y607106D01*
X299442Y607220D01*
X299394Y607332D01*
X299343Y607443D01*
X299288Y607552D01*
X299230Y607660D01*
X299168Y607765D01*
X299103Y607868D01*
X299035Y607970D01*
X298963Y608069D01*
X298889Y608165D01*
X298811Y608260D01*
X298730Y608351D01*
X298647Y608441D01*
X298561Y608527D01*
X298471Y608610D01*
X298380Y608691D01*
X298285Y608769D01*
X298189Y608843D01*
X298090Y608915D01*
X297988Y608983D01*
X297885Y609048D01*
X297780Y609110D01*
X297672Y609168D01*
X297563Y609223D01*
X297452Y609274D01*
X297340Y609322D01*
X297226Y609366D01*
X297111Y609406D01*
X296994Y609443D01*
X296876Y609475D01*
X296758Y609504D01*
X296638Y609530D01*
X296518Y609551D01*
X296397Y609569D01*
X296276Y609582D01*
X296154Y609592D01*
X296032Y609598D01*
X295910Y609600D01*
X299720Y568960D02*
X299720Y562610D01*
X299720Y568960D02*
X298450Y570230D01*
X284480Y568960D02*
X284480Y562610D01*
X284480Y568960D02*
X285750Y570230D01*
X298450Y598170D02*
X299720Y599440D01*
X298450Y598170D02*
X298450Y570230D01*
X285750Y598170D02*
X284480Y599440D01*
X285750Y598170D02*
X285750Y570230D01*
X288290Y609600D02*
X295910Y609600D01*
X299720Y605790D02*
X299720Y599440D01*
X284480Y599440D02*
X284480Y605790D01*
D14*
X292100Y551815D03*
X292100Y616585D03*
D11*
X318135Y616668D02*
X329565Y616668D01*
X318135Y616668D02*
X318135Y619843D01*
X318137Y619954D01*
X318143Y620064D01*
X318152Y620175D01*
X318166Y620285D01*
X318183Y620394D01*
X318204Y620503D01*
X318229Y620611D01*
X318258Y620718D01*
X318290Y620824D01*
X318326Y620929D01*
X318366Y621032D01*
X318409Y621134D01*
X318456Y621235D01*
X318507Y621334D01*
X318560Y621431D01*
X318617Y621525D01*
X318678Y621618D01*
X318741Y621709D01*
X318808Y621798D01*
X318878Y621884D01*
X318951Y621967D01*
X319026Y622049D01*
X319104Y622127D01*
X319186Y622202D01*
X319269Y622275D01*
X319355Y622345D01*
X319444Y622412D01*
X319535Y622475D01*
X319628Y622536D01*
X319723Y622593D01*
X319819Y622646D01*
X319918Y622697D01*
X320019Y622744D01*
X320121Y622787D01*
X320224Y622827D01*
X320329Y622863D01*
X320435Y622895D01*
X320542Y622924D01*
X320650Y622949D01*
X320759Y622970D01*
X320868Y622987D01*
X320978Y623001D01*
X321089Y623010D01*
X321199Y623016D01*
X321310Y623018D01*
X321421Y623016D01*
X321531Y623010D01*
X321642Y623001D01*
X321752Y622987D01*
X321861Y622970D01*
X321970Y622949D01*
X322078Y622924D01*
X322185Y622895D01*
X322291Y622863D01*
X322396Y622827D01*
X322499Y622787D01*
X322601Y622744D01*
X322702Y622697D01*
X322801Y622646D01*
X322898Y622593D01*
X322992Y622536D01*
X323085Y622475D01*
X323176Y622412D01*
X323265Y622345D01*
X323351Y622275D01*
X323434Y622202D01*
X323516Y622127D01*
X323594Y622049D01*
X323669Y621967D01*
X323742Y621884D01*
X323812Y621798D01*
X323879Y621709D01*
X323942Y621618D01*
X324003Y621525D01*
X324060Y621431D01*
X324113Y621334D01*
X324164Y621235D01*
X324211Y621134D01*
X324254Y621032D01*
X324294Y620929D01*
X324330Y620824D01*
X324362Y620718D01*
X324391Y620611D01*
X324416Y620503D01*
X324437Y620394D01*
X324454Y620285D01*
X324468Y620175D01*
X324477Y620064D01*
X324483Y619954D01*
X324485Y619843D01*
X324485Y616668D01*
X324485Y620478D02*
X329565Y623018D01*
X327025Y628015D02*
X318135Y630555D01*
X327025Y628015D02*
X327025Y634365D01*
X324485Y632460D02*
X329565Y632460D01*
D10*
X631190Y558800D02*
X638810Y558800D01*
X638932Y558802D01*
X639054Y558808D01*
X639176Y558818D01*
X639297Y558831D01*
X639418Y558849D01*
X639538Y558870D01*
X639658Y558896D01*
X639776Y558925D01*
X639894Y558957D01*
X640011Y558994D01*
X640126Y559034D01*
X640240Y559078D01*
X640352Y559126D01*
X640463Y559177D01*
X640572Y559232D01*
X640680Y559290D01*
X640785Y559352D01*
X640888Y559417D01*
X640990Y559485D01*
X641089Y559557D01*
X641185Y559631D01*
X641280Y559709D01*
X641371Y559790D01*
X641461Y559873D01*
X641547Y559959D01*
X641630Y560049D01*
X641711Y560140D01*
X641789Y560235D01*
X641863Y560331D01*
X641935Y560430D01*
X642003Y560532D01*
X642068Y560635D01*
X642130Y560740D01*
X642188Y560848D01*
X642243Y560957D01*
X642294Y561068D01*
X642342Y561180D01*
X642386Y561294D01*
X642426Y561409D01*
X642463Y561526D01*
X642495Y561644D01*
X642524Y561762D01*
X642550Y561882D01*
X642571Y562002D01*
X642589Y562123D01*
X642602Y562244D01*
X642612Y562366D01*
X642618Y562488D01*
X642620Y562610D01*
X627380Y605790D02*
X627382Y605912D01*
X627388Y606034D01*
X627398Y606156D01*
X627411Y606277D01*
X627429Y606398D01*
X627450Y606518D01*
X627476Y606638D01*
X627505Y606756D01*
X627537Y606874D01*
X627574Y606991D01*
X627614Y607106D01*
X627658Y607220D01*
X627706Y607332D01*
X627757Y607443D01*
X627812Y607552D01*
X627870Y607660D01*
X627932Y607765D01*
X627997Y607868D01*
X628065Y607970D01*
X628137Y608069D01*
X628211Y608165D01*
X628289Y608260D01*
X628370Y608351D01*
X628453Y608441D01*
X628539Y608527D01*
X628629Y608610D01*
X628720Y608691D01*
X628815Y608769D01*
X628911Y608843D01*
X629010Y608915D01*
X629112Y608983D01*
X629215Y609048D01*
X629320Y609110D01*
X629428Y609168D01*
X629537Y609223D01*
X629648Y609274D01*
X629760Y609322D01*
X629874Y609366D01*
X629989Y609406D01*
X630106Y609443D01*
X630224Y609475D01*
X630342Y609504D01*
X630462Y609530D01*
X630582Y609551D01*
X630703Y609569D01*
X630824Y609582D01*
X630946Y609592D01*
X631068Y609598D01*
X631190Y609600D01*
X627380Y562610D02*
X627382Y562488D01*
X627388Y562366D01*
X627398Y562244D01*
X627411Y562123D01*
X627429Y562002D01*
X627450Y561882D01*
X627476Y561762D01*
X627505Y561644D01*
X627537Y561526D01*
X627574Y561409D01*
X627614Y561294D01*
X627658Y561180D01*
X627706Y561068D01*
X627757Y560957D01*
X627812Y560848D01*
X627870Y560740D01*
X627932Y560635D01*
X627997Y560532D01*
X628065Y560430D01*
X628137Y560331D01*
X628211Y560235D01*
X628289Y560140D01*
X628370Y560049D01*
X628453Y559959D01*
X628539Y559873D01*
X628629Y559790D01*
X628720Y559709D01*
X628815Y559631D01*
X628911Y559557D01*
X629010Y559485D01*
X629112Y559417D01*
X629215Y559352D01*
X629320Y559290D01*
X629428Y559232D01*
X629537Y559177D01*
X629648Y559126D01*
X629760Y559078D01*
X629874Y559034D01*
X629989Y558994D01*
X630106Y558957D01*
X630224Y558925D01*
X630342Y558896D01*
X630462Y558870D01*
X630582Y558849D01*
X630703Y558831D01*
X630824Y558818D01*
X630946Y558808D01*
X631068Y558802D01*
X631190Y558800D01*
X642620Y605790D02*
X642618Y605912D01*
X642612Y606034D01*
X642602Y606156D01*
X642589Y606277D01*
X642571Y606398D01*
X642550Y606518D01*
X642524Y606638D01*
X642495Y606756D01*
X642463Y606874D01*
X642426Y606991D01*
X642386Y607106D01*
X642342Y607220D01*
X642294Y607332D01*
X642243Y607443D01*
X642188Y607552D01*
X642130Y607660D01*
X642068Y607765D01*
X642003Y607868D01*
X641935Y607970D01*
X641863Y608069D01*
X641789Y608165D01*
X641711Y608260D01*
X641630Y608351D01*
X641547Y608441D01*
X641461Y608527D01*
X641371Y608610D01*
X641280Y608691D01*
X641185Y608769D01*
X641089Y608843D01*
X640990Y608915D01*
X640888Y608983D01*
X640785Y609048D01*
X640680Y609110D01*
X640572Y609168D01*
X640463Y609223D01*
X640352Y609274D01*
X640240Y609322D01*
X640126Y609366D01*
X640011Y609406D01*
X639894Y609443D01*
X639776Y609475D01*
X639658Y609504D01*
X639538Y609530D01*
X639418Y609551D01*
X639297Y609569D01*
X639176Y609582D01*
X639054Y609592D01*
X638932Y609598D01*
X638810Y609600D01*
X642620Y568960D02*
X642620Y562610D01*
X642620Y568960D02*
X641350Y570230D01*
X627380Y568960D02*
X627380Y562610D01*
X627380Y568960D02*
X628650Y570230D01*
X641350Y598170D02*
X642620Y599440D01*
X641350Y598170D02*
X641350Y570230D01*
X628650Y598170D02*
X627380Y599440D01*
X628650Y598170D02*
X628650Y570230D01*
X631190Y609600D02*
X638810Y609600D01*
X642620Y605790D02*
X642620Y599440D01*
X627380Y599440D02*
X627380Y605790D01*
D14*
X635000Y551815D03*
X635000Y616585D03*
D11*
X661035Y616668D02*
X672465Y616668D01*
X661035Y616668D02*
X661035Y619843D01*
X661037Y619954D01*
X661043Y620064D01*
X661052Y620175D01*
X661066Y620285D01*
X661083Y620394D01*
X661104Y620503D01*
X661129Y620611D01*
X661158Y620718D01*
X661190Y620824D01*
X661226Y620929D01*
X661266Y621032D01*
X661309Y621134D01*
X661356Y621235D01*
X661407Y621334D01*
X661460Y621431D01*
X661517Y621525D01*
X661578Y621618D01*
X661641Y621709D01*
X661708Y621798D01*
X661778Y621884D01*
X661851Y621967D01*
X661926Y622049D01*
X662004Y622127D01*
X662086Y622202D01*
X662169Y622275D01*
X662255Y622345D01*
X662344Y622412D01*
X662435Y622475D01*
X662528Y622536D01*
X662623Y622593D01*
X662719Y622646D01*
X662818Y622697D01*
X662919Y622744D01*
X663021Y622787D01*
X663124Y622827D01*
X663229Y622863D01*
X663335Y622895D01*
X663442Y622924D01*
X663550Y622949D01*
X663659Y622970D01*
X663768Y622987D01*
X663878Y623001D01*
X663989Y623010D01*
X664099Y623016D01*
X664210Y623018D01*
X664321Y623016D01*
X664431Y623010D01*
X664542Y623001D01*
X664652Y622987D01*
X664761Y622970D01*
X664870Y622949D01*
X664978Y622924D01*
X665085Y622895D01*
X665191Y622863D01*
X665296Y622827D01*
X665399Y622787D01*
X665501Y622744D01*
X665602Y622697D01*
X665701Y622646D01*
X665798Y622593D01*
X665892Y622536D01*
X665985Y622475D01*
X666076Y622412D01*
X666165Y622345D01*
X666251Y622275D01*
X666334Y622202D01*
X666416Y622127D01*
X666494Y622049D01*
X666569Y621967D01*
X666642Y621884D01*
X666712Y621798D01*
X666779Y621709D01*
X666842Y621618D01*
X666903Y621525D01*
X666960Y621431D01*
X667013Y621334D01*
X667064Y621235D01*
X667111Y621134D01*
X667154Y621032D01*
X667194Y620929D01*
X667230Y620824D01*
X667262Y620718D01*
X667291Y620611D01*
X667316Y620503D01*
X667337Y620394D01*
X667354Y620285D01*
X667368Y620175D01*
X667377Y620064D01*
X667383Y619954D01*
X667385Y619843D01*
X667385Y616668D01*
X667385Y620478D02*
X672465Y623018D01*
X672465Y628015D02*
X672465Y631825D01*
X672463Y631925D01*
X672457Y632024D01*
X672447Y632124D01*
X672434Y632222D01*
X672416Y632321D01*
X672395Y632418D01*
X672370Y632514D01*
X672341Y632610D01*
X672308Y632704D01*
X672272Y632797D01*
X672232Y632888D01*
X672188Y632978D01*
X672141Y633066D01*
X672091Y633152D01*
X672037Y633236D01*
X671980Y633318D01*
X671920Y633397D01*
X671856Y633475D01*
X671790Y633549D01*
X671721Y633621D01*
X671649Y633690D01*
X671575Y633756D01*
X671497Y633820D01*
X671418Y633880D01*
X671336Y633937D01*
X671252Y633991D01*
X671166Y634041D01*
X671078Y634088D01*
X670988Y634132D01*
X670897Y634172D01*
X670804Y634208D01*
X670710Y634241D01*
X670614Y634270D01*
X670518Y634295D01*
X670421Y634316D01*
X670322Y634334D01*
X670224Y634347D01*
X670124Y634357D01*
X670025Y634363D01*
X669925Y634365D01*
X668655Y634365D01*
X668555Y634363D01*
X668456Y634357D01*
X668356Y634347D01*
X668258Y634334D01*
X668159Y634316D01*
X668062Y634295D01*
X667966Y634270D01*
X667870Y634241D01*
X667776Y634208D01*
X667683Y634172D01*
X667592Y634132D01*
X667502Y634088D01*
X667414Y634041D01*
X667328Y633991D01*
X667244Y633937D01*
X667162Y633880D01*
X667083Y633820D01*
X667005Y633756D01*
X666931Y633690D01*
X666859Y633621D01*
X666790Y633549D01*
X666724Y633475D01*
X666660Y633397D01*
X666600Y633318D01*
X666543Y633236D01*
X666489Y633152D01*
X666439Y633066D01*
X666392Y632978D01*
X666348Y632888D01*
X666308Y632797D01*
X666272Y632704D01*
X666239Y632610D01*
X666210Y632514D01*
X666185Y632418D01*
X666164Y632321D01*
X666146Y632222D01*
X666133Y632124D01*
X666123Y632024D01*
X666117Y631925D01*
X666115Y631825D01*
X666115Y628015D01*
X661035Y628015D01*
X661035Y634365D01*
D10*
X588010Y558800D02*
X580390Y558800D01*
X588010Y558800D02*
X588132Y558802D01*
X588254Y558808D01*
X588376Y558818D01*
X588497Y558831D01*
X588618Y558849D01*
X588738Y558870D01*
X588858Y558896D01*
X588976Y558925D01*
X589094Y558957D01*
X589211Y558994D01*
X589326Y559034D01*
X589440Y559078D01*
X589552Y559126D01*
X589663Y559177D01*
X589772Y559232D01*
X589880Y559290D01*
X589985Y559352D01*
X590088Y559417D01*
X590190Y559485D01*
X590289Y559557D01*
X590385Y559631D01*
X590480Y559709D01*
X590571Y559790D01*
X590661Y559873D01*
X590747Y559959D01*
X590830Y560049D01*
X590911Y560140D01*
X590989Y560235D01*
X591063Y560331D01*
X591135Y560430D01*
X591203Y560532D01*
X591268Y560635D01*
X591330Y560740D01*
X591388Y560848D01*
X591443Y560957D01*
X591494Y561068D01*
X591542Y561180D01*
X591586Y561294D01*
X591626Y561409D01*
X591663Y561526D01*
X591695Y561644D01*
X591724Y561762D01*
X591750Y561882D01*
X591771Y562002D01*
X591789Y562123D01*
X591802Y562244D01*
X591812Y562366D01*
X591818Y562488D01*
X591820Y562610D01*
X576580Y605790D02*
X576582Y605912D01*
X576588Y606034D01*
X576598Y606156D01*
X576611Y606277D01*
X576629Y606398D01*
X576650Y606518D01*
X576676Y606638D01*
X576705Y606756D01*
X576737Y606874D01*
X576774Y606991D01*
X576814Y607106D01*
X576858Y607220D01*
X576906Y607332D01*
X576957Y607443D01*
X577012Y607552D01*
X577070Y607660D01*
X577132Y607765D01*
X577197Y607868D01*
X577265Y607970D01*
X577337Y608069D01*
X577411Y608165D01*
X577489Y608260D01*
X577570Y608351D01*
X577653Y608441D01*
X577739Y608527D01*
X577829Y608610D01*
X577920Y608691D01*
X578015Y608769D01*
X578111Y608843D01*
X578210Y608915D01*
X578312Y608983D01*
X578415Y609048D01*
X578520Y609110D01*
X578628Y609168D01*
X578737Y609223D01*
X578848Y609274D01*
X578960Y609322D01*
X579074Y609366D01*
X579189Y609406D01*
X579306Y609443D01*
X579424Y609475D01*
X579542Y609504D01*
X579662Y609530D01*
X579782Y609551D01*
X579903Y609569D01*
X580024Y609582D01*
X580146Y609592D01*
X580268Y609598D01*
X580390Y609600D01*
X576580Y562610D02*
X576582Y562488D01*
X576588Y562366D01*
X576598Y562244D01*
X576611Y562123D01*
X576629Y562002D01*
X576650Y561882D01*
X576676Y561762D01*
X576705Y561644D01*
X576737Y561526D01*
X576774Y561409D01*
X576814Y561294D01*
X576858Y561180D01*
X576906Y561068D01*
X576957Y560957D01*
X577012Y560848D01*
X577070Y560740D01*
X577132Y560635D01*
X577197Y560532D01*
X577265Y560430D01*
X577337Y560331D01*
X577411Y560235D01*
X577489Y560140D01*
X577570Y560049D01*
X577653Y559959D01*
X577739Y559873D01*
X577829Y559790D01*
X577920Y559709D01*
X578015Y559631D01*
X578111Y559557D01*
X578210Y559485D01*
X578312Y559417D01*
X578415Y559352D01*
X578520Y559290D01*
X578628Y559232D01*
X578737Y559177D01*
X578848Y559126D01*
X578960Y559078D01*
X579074Y559034D01*
X579189Y558994D01*
X579306Y558957D01*
X579424Y558925D01*
X579542Y558896D01*
X579662Y558870D01*
X579782Y558849D01*
X579903Y558831D01*
X580024Y558818D01*
X580146Y558808D01*
X580268Y558802D01*
X580390Y558800D01*
X591820Y605790D02*
X591818Y605912D01*
X591812Y606034D01*
X591802Y606156D01*
X591789Y606277D01*
X591771Y606398D01*
X591750Y606518D01*
X591724Y606638D01*
X591695Y606756D01*
X591663Y606874D01*
X591626Y606991D01*
X591586Y607106D01*
X591542Y607220D01*
X591494Y607332D01*
X591443Y607443D01*
X591388Y607552D01*
X591330Y607660D01*
X591268Y607765D01*
X591203Y607868D01*
X591135Y607970D01*
X591063Y608069D01*
X590989Y608165D01*
X590911Y608260D01*
X590830Y608351D01*
X590747Y608441D01*
X590661Y608527D01*
X590571Y608610D01*
X590480Y608691D01*
X590385Y608769D01*
X590289Y608843D01*
X590190Y608915D01*
X590088Y608983D01*
X589985Y609048D01*
X589880Y609110D01*
X589772Y609168D01*
X589663Y609223D01*
X589552Y609274D01*
X589440Y609322D01*
X589326Y609366D01*
X589211Y609406D01*
X589094Y609443D01*
X588976Y609475D01*
X588858Y609504D01*
X588738Y609530D01*
X588618Y609551D01*
X588497Y609569D01*
X588376Y609582D01*
X588254Y609592D01*
X588132Y609598D01*
X588010Y609600D01*
X591820Y568960D02*
X591820Y562610D01*
X591820Y568960D02*
X590550Y570230D01*
X576580Y568960D02*
X576580Y562610D01*
X576580Y568960D02*
X577850Y570230D01*
X590550Y598170D02*
X591820Y599440D01*
X590550Y598170D02*
X590550Y570230D01*
X577850Y598170D02*
X576580Y599440D01*
X577850Y598170D02*
X577850Y570230D01*
X580390Y609600D02*
X588010Y609600D01*
X591820Y605790D02*
X591820Y599440D01*
X576580Y599440D02*
X576580Y605790D01*
D14*
X584200Y551815D03*
X584200Y616585D03*
D11*
X610235Y616668D02*
X621665Y616668D01*
X610235Y616668D02*
X610235Y619843D01*
X610237Y619954D01*
X610243Y620064D01*
X610252Y620175D01*
X610266Y620285D01*
X610283Y620394D01*
X610304Y620503D01*
X610329Y620611D01*
X610358Y620718D01*
X610390Y620824D01*
X610426Y620929D01*
X610466Y621032D01*
X610509Y621134D01*
X610556Y621235D01*
X610607Y621334D01*
X610660Y621431D01*
X610717Y621525D01*
X610778Y621618D01*
X610841Y621709D01*
X610908Y621798D01*
X610978Y621884D01*
X611051Y621967D01*
X611126Y622049D01*
X611204Y622127D01*
X611286Y622202D01*
X611369Y622275D01*
X611455Y622345D01*
X611544Y622412D01*
X611635Y622475D01*
X611728Y622536D01*
X611823Y622593D01*
X611919Y622646D01*
X612018Y622697D01*
X612119Y622744D01*
X612221Y622787D01*
X612324Y622827D01*
X612429Y622863D01*
X612535Y622895D01*
X612642Y622924D01*
X612750Y622949D01*
X612859Y622970D01*
X612968Y622987D01*
X613078Y623001D01*
X613189Y623010D01*
X613299Y623016D01*
X613410Y623018D01*
X613521Y623016D01*
X613631Y623010D01*
X613742Y623001D01*
X613852Y622987D01*
X613961Y622970D01*
X614070Y622949D01*
X614178Y622924D01*
X614285Y622895D01*
X614391Y622863D01*
X614496Y622827D01*
X614599Y622787D01*
X614701Y622744D01*
X614802Y622697D01*
X614901Y622646D01*
X614998Y622593D01*
X615092Y622536D01*
X615185Y622475D01*
X615276Y622412D01*
X615365Y622345D01*
X615451Y622275D01*
X615534Y622202D01*
X615616Y622127D01*
X615694Y622049D01*
X615769Y621967D01*
X615842Y621884D01*
X615912Y621798D01*
X615979Y621709D01*
X616042Y621618D01*
X616103Y621525D01*
X616160Y621431D01*
X616213Y621334D01*
X616264Y621235D01*
X616311Y621134D01*
X616354Y621032D01*
X616394Y620929D01*
X616430Y620824D01*
X616462Y620718D01*
X616491Y620611D01*
X616516Y620503D01*
X616537Y620394D01*
X616554Y620285D01*
X616568Y620175D01*
X616577Y620064D01*
X616583Y619954D01*
X616585Y619843D01*
X616585Y616668D01*
X616585Y620478D02*
X621665Y623018D01*
X615315Y628015D02*
X615315Y631825D01*
X615317Y631925D01*
X615323Y632024D01*
X615333Y632124D01*
X615346Y632222D01*
X615364Y632321D01*
X615385Y632418D01*
X615410Y632514D01*
X615439Y632610D01*
X615472Y632704D01*
X615508Y632797D01*
X615548Y632888D01*
X615592Y632978D01*
X615639Y633066D01*
X615689Y633152D01*
X615743Y633236D01*
X615800Y633318D01*
X615860Y633397D01*
X615924Y633475D01*
X615990Y633549D01*
X616059Y633621D01*
X616131Y633690D01*
X616205Y633756D01*
X616283Y633820D01*
X616362Y633880D01*
X616444Y633937D01*
X616528Y633991D01*
X616614Y634041D01*
X616702Y634088D01*
X616792Y634132D01*
X616883Y634172D01*
X616976Y634208D01*
X617070Y634241D01*
X617166Y634270D01*
X617262Y634295D01*
X617359Y634316D01*
X617458Y634334D01*
X617556Y634347D01*
X617656Y634357D01*
X617755Y634363D01*
X617855Y634365D01*
X618490Y634365D01*
X618601Y634363D01*
X618711Y634357D01*
X618822Y634348D01*
X618932Y634334D01*
X619041Y634317D01*
X619150Y634296D01*
X619258Y634271D01*
X619365Y634242D01*
X619471Y634210D01*
X619576Y634174D01*
X619679Y634134D01*
X619781Y634091D01*
X619882Y634044D01*
X619981Y633993D01*
X620078Y633940D01*
X620172Y633883D01*
X620265Y633822D01*
X620356Y633759D01*
X620445Y633692D01*
X620531Y633622D01*
X620614Y633549D01*
X620696Y633474D01*
X620774Y633396D01*
X620849Y633314D01*
X620922Y633231D01*
X620992Y633145D01*
X621059Y633056D01*
X621122Y632965D01*
X621183Y632872D01*
X621240Y632777D01*
X621293Y632681D01*
X621344Y632582D01*
X621391Y632481D01*
X621434Y632379D01*
X621474Y632276D01*
X621510Y632171D01*
X621542Y632065D01*
X621571Y631958D01*
X621596Y631850D01*
X621617Y631741D01*
X621634Y631632D01*
X621648Y631522D01*
X621657Y631411D01*
X621663Y631301D01*
X621665Y631190D01*
X621663Y631079D01*
X621657Y630969D01*
X621648Y630858D01*
X621634Y630748D01*
X621617Y630639D01*
X621596Y630530D01*
X621571Y630422D01*
X621542Y630315D01*
X621510Y630209D01*
X621474Y630104D01*
X621434Y630001D01*
X621391Y629899D01*
X621344Y629798D01*
X621293Y629699D01*
X621240Y629603D01*
X621183Y629508D01*
X621122Y629415D01*
X621059Y629324D01*
X620992Y629235D01*
X620922Y629149D01*
X620849Y629066D01*
X620774Y628984D01*
X620696Y628906D01*
X620614Y628831D01*
X620531Y628758D01*
X620445Y628688D01*
X620356Y628621D01*
X620265Y628558D01*
X620172Y628497D01*
X620078Y628440D01*
X619981Y628387D01*
X619882Y628336D01*
X619781Y628289D01*
X619679Y628246D01*
X619576Y628206D01*
X619471Y628170D01*
X619365Y628138D01*
X619258Y628109D01*
X619150Y628084D01*
X619041Y628063D01*
X618932Y628046D01*
X618822Y628032D01*
X618711Y628023D01*
X618601Y628017D01*
X618490Y628015D01*
X615315Y628015D01*
X615175Y628017D01*
X615035Y628023D01*
X614895Y628032D01*
X614756Y628046D01*
X614617Y628063D01*
X614479Y628084D01*
X614341Y628109D01*
X614204Y628138D01*
X614068Y628170D01*
X613933Y628207D01*
X613799Y628247D01*
X613666Y628290D01*
X613534Y628338D01*
X613403Y628388D01*
X613274Y628443D01*
X613147Y628501D01*
X613021Y628562D01*
X612897Y628627D01*
X612775Y628696D01*
X612655Y628767D01*
X612537Y628842D01*
X612420Y628920D01*
X612306Y629002D01*
X612195Y629086D01*
X612086Y629174D01*
X611979Y629264D01*
X611874Y629358D01*
X611773Y629454D01*
X611674Y629553D01*
X611578Y629654D01*
X611484Y629759D01*
X611394Y629866D01*
X611306Y629975D01*
X611222Y630086D01*
X611140Y630200D01*
X611062Y630317D01*
X610987Y630435D01*
X610916Y630555D01*
X610847Y630677D01*
X610782Y630801D01*
X610721Y630927D01*
X610663Y631054D01*
X610608Y631183D01*
X610558Y631314D01*
X610510Y631446D01*
X610467Y631579D01*
X610427Y631713D01*
X610390Y631848D01*
X610358Y631984D01*
X610329Y632121D01*
X610304Y632259D01*
X610283Y632397D01*
X610266Y632536D01*
X610252Y632675D01*
X610243Y632815D01*
X610237Y632955D01*
X610235Y633095D01*
D10*
X847090Y558800D02*
X854710Y558800D01*
X854832Y558802D01*
X854954Y558808D01*
X855076Y558818D01*
X855197Y558831D01*
X855318Y558849D01*
X855438Y558870D01*
X855558Y558896D01*
X855676Y558925D01*
X855794Y558957D01*
X855911Y558994D01*
X856026Y559034D01*
X856140Y559078D01*
X856252Y559126D01*
X856363Y559177D01*
X856472Y559232D01*
X856580Y559290D01*
X856685Y559352D01*
X856788Y559417D01*
X856890Y559485D01*
X856989Y559557D01*
X857085Y559631D01*
X857180Y559709D01*
X857271Y559790D01*
X857361Y559873D01*
X857447Y559959D01*
X857530Y560049D01*
X857611Y560140D01*
X857689Y560235D01*
X857763Y560331D01*
X857835Y560430D01*
X857903Y560532D01*
X857968Y560635D01*
X858030Y560740D01*
X858088Y560848D01*
X858143Y560957D01*
X858194Y561068D01*
X858242Y561180D01*
X858286Y561294D01*
X858326Y561409D01*
X858363Y561526D01*
X858395Y561644D01*
X858424Y561762D01*
X858450Y561882D01*
X858471Y562002D01*
X858489Y562123D01*
X858502Y562244D01*
X858512Y562366D01*
X858518Y562488D01*
X858520Y562610D01*
X843280Y605790D02*
X843282Y605912D01*
X843288Y606034D01*
X843298Y606156D01*
X843311Y606277D01*
X843329Y606398D01*
X843350Y606518D01*
X843376Y606638D01*
X843405Y606756D01*
X843437Y606874D01*
X843474Y606991D01*
X843514Y607106D01*
X843558Y607220D01*
X843606Y607332D01*
X843657Y607443D01*
X843712Y607552D01*
X843770Y607660D01*
X843832Y607765D01*
X843897Y607868D01*
X843965Y607970D01*
X844037Y608069D01*
X844111Y608165D01*
X844189Y608260D01*
X844270Y608351D01*
X844353Y608441D01*
X844439Y608527D01*
X844529Y608610D01*
X844620Y608691D01*
X844715Y608769D01*
X844811Y608843D01*
X844910Y608915D01*
X845012Y608983D01*
X845115Y609048D01*
X845220Y609110D01*
X845328Y609168D01*
X845437Y609223D01*
X845548Y609274D01*
X845660Y609322D01*
X845774Y609366D01*
X845889Y609406D01*
X846006Y609443D01*
X846124Y609475D01*
X846242Y609504D01*
X846362Y609530D01*
X846482Y609551D01*
X846603Y609569D01*
X846724Y609582D01*
X846846Y609592D01*
X846968Y609598D01*
X847090Y609600D01*
X843280Y562610D02*
X843282Y562488D01*
X843288Y562366D01*
X843298Y562244D01*
X843311Y562123D01*
X843329Y562002D01*
X843350Y561882D01*
X843376Y561762D01*
X843405Y561644D01*
X843437Y561526D01*
X843474Y561409D01*
X843514Y561294D01*
X843558Y561180D01*
X843606Y561068D01*
X843657Y560957D01*
X843712Y560848D01*
X843770Y560740D01*
X843832Y560635D01*
X843897Y560532D01*
X843965Y560430D01*
X844037Y560331D01*
X844111Y560235D01*
X844189Y560140D01*
X844270Y560049D01*
X844353Y559959D01*
X844439Y559873D01*
X844529Y559790D01*
X844620Y559709D01*
X844715Y559631D01*
X844811Y559557D01*
X844910Y559485D01*
X845012Y559417D01*
X845115Y559352D01*
X845220Y559290D01*
X845328Y559232D01*
X845437Y559177D01*
X845548Y559126D01*
X845660Y559078D01*
X845774Y559034D01*
X845889Y558994D01*
X846006Y558957D01*
X846124Y558925D01*
X846242Y558896D01*
X846362Y558870D01*
X846482Y558849D01*
X846603Y558831D01*
X846724Y558818D01*
X846846Y558808D01*
X846968Y558802D01*
X847090Y558800D01*
X858520Y605790D02*
X858518Y605912D01*
X858512Y606034D01*
X858502Y606156D01*
X858489Y606277D01*
X858471Y606398D01*
X858450Y606518D01*
X858424Y606638D01*
X858395Y606756D01*
X858363Y606874D01*
X858326Y606991D01*
X858286Y607106D01*
X858242Y607220D01*
X858194Y607332D01*
X858143Y607443D01*
X858088Y607552D01*
X858030Y607660D01*
X857968Y607765D01*
X857903Y607868D01*
X857835Y607970D01*
X857763Y608069D01*
X857689Y608165D01*
X857611Y608260D01*
X857530Y608351D01*
X857447Y608441D01*
X857361Y608527D01*
X857271Y608610D01*
X857180Y608691D01*
X857085Y608769D01*
X856989Y608843D01*
X856890Y608915D01*
X856788Y608983D01*
X856685Y609048D01*
X856580Y609110D01*
X856472Y609168D01*
X856363Y609223D01*
X856252Y609274D01*
X856140Y609322D01*
X856026Y609366D01*
X855911Y609406D01*
X855794Y609443D01*
X855676Y609475D01*
X855558Y609504D01*
X855438Y609530D01*
X855318Y609551D01*
X855197Y609569D01*
X855076Y609582D01*
X854954Y609592D01*
X854832Y609598D01*
X854710Y609600D01*
X858520Y568960D02*
X858520Y562610D01*
X858520Y568960D02*
X857250Y570230D01*
X843280Y568960D02*
X843280Y562610D01*
X843280Y568960D02*
X844550Y570230D01*
X857250Y598170D02*
X858520Y599440D01*
X857250Y598170D02*
X857250Y570230D01*
X844550Y598170D02*
X843280Y599440D01*
X844550Y598170D02*
X844550Y570230D01*
X847090Y609600D02*
X854710Y609600D01*
X858520Y605790D02*
X858520Y599440D01*
X843280Y599440D02*
X843280Y605790D01*
D14*
X850900Y551815D03*
X850900Y616585D03*
D11*
X876935Y616668D02*
X888365Y616668D01*
X876935Y616668D02*
X876935Y619843D01*
X876937Y619954D01*
X876943Y620064D01*
X876952Y620175D01*
X876966Y620285D01*
X876983Y620394D01*
X877004Y620503D01*
X877029Y620611D01*
X877058Y620718D01*
X877090Y620824D01*
X877126Y620929D01*
X877166Y621032D01*
X877209Y621134D01*
X877256Y621235D01*
X877307Y621334D01*
X877360Y621431D01*
X877417Y621525D01*
X877478Y621618D01*
X877541Y621709D01*
X877608Y621798D01*
X877678Y621884D01*
X877751Y621967D01*
X877826Y622049D01*
X877904Y622127D01*
X877986Y622202D01*
X878069Y622275D01*
X878155Y622345D01*
X878244Y622412D01*
X878335Y622475D01*
X878428Y622536D01*
X878523Y622593D01*
X878619Y622646D01*
X878718Y622697D01*
X878819Y622744D01*
X878921Y622787D01*
X879024Y622827D01*
X879129Y622863D01*
X879235Y622895D01*
X879342Y622924D01*
X879450Y622949D01*
X879559Y622970D01*
X879668Y622987D01*
X879778Y623001D01*
X879889Y623010D01*
X879999Y623016D01*
X880110Y623018D01*
X880221Y623016D01*
X880331Y623010D01*
X880442Y623001D01*
X880552Y622987D01*
X880661Y622970D01*
X880770Y622949D01*
X880878Y622924D01*
X880985Y622895D01*
X881091Y622863D01*
X881196Y622827D01*
X881299Y622787D01*
X881401Y622744D01*
X881502Y622697D01*
X881601Y622646D01*
X881698Y622593D01*
X881792Y622536D01*
X881885Y622475D01*
X881976Y622412D01*
X882065Y622345D01*
X882151Y622275D01*
X882234Y622202D01*
X882316Y622127D01*
X882394Y622049D01*
X882469Y621967D01*
X882542Y621884D01*
X882612Y621798D01*
X882679Y621709D01*
X882742Y621618D01*
X882803Y621525D01*
X882860Y621431D01*
X882913Y621334D01*
X882964Y621235D01*
X883011Y621134D01*
X883054Y621032D01*
X883094Y620929D01*
X883130Y620824D01*
X883162Y620718D01*
X883191Y620611D01*
X883216Y620503D01*
X883237Y620394D01*
X883254Y620285D01*
X883268Y620175D01*
X883277Y620064D01*
X883283Y619954D01*
X883285Y619843D01*
X883285Y616668D01*
X883285Y620478D02*
X888365Y623018D01*
X878205Y628015D02*
X876935Y628015D01*
X876935Y634365D01*
X888365Y631190D01*
D10*
X803910Y558800D02*
X796290Y558800D01*
X803910Y558800D02*
X804032Y558802D01*
X804154Y558808D01*
X804276Y558818D01*
X804397Y558831D01*
X804518Y558849D01*
X804638Y558870D01*
X804758Y558896D01*
X804876Y558925D01*
X804994Y558957D01*
X805111Y558994D01*
X805226Y559034D01*
X805340Y559078D01*
X805452Y559126D01*
X805563Y559177D01*
X805672Y559232D01*
X805780Y559290D01*
X805885Y559352D01*
X805988Y559417D01*
X806090Y559485D01*
X806189Y559557D01*
X806285Y559631D01*
X806380Y559709D01*
X806471Y559790D01*
X806561Y559873D01*
X806647Y559959D01*
X806730Y560049D01*
X806811Y560140D01*
X806889Y560235D01*
X806963Y560331D01*
X807035Y560430D01*
X807103Y560532D01*
X807168Y560635D01*
X807230Y560740D01*
X807288Y560848D01*
X807343Y560957D01*
X807394Y561068D01*
X807442Y561180D01*
X807486Y561294D01*
X807526Y561409D01*
X807563Y561526D01*
X807595Y561644D01*
X807624Y561762D01*
X807650Y561882D01*
X807671Y562002D01*
X807689Y562123D01*
X807702Y562244D01*
X807712Y562366D01*
X807718Y562488D01*
X807720Y562610D01*
X792480Y605790D02*
X792482Y605912D01*
X792488Y606034D01*
X792498Y606156D01*
X792511Y606277D01*
X792529Y606398D01*
X792550Y606518D01*
X792576Y606638D01*
X792605Y606756D01*
X792637Y606874D01*
X792674Y606991D01*
X792714Y607106D01*
X792758Y607220D01*
X792806Y607332D01*
X792857Y607443D01*
X792912Y607552D01*
X792970Y607660D01*
X793032Y607765D01*
X793097Y607868D01*
X793165Y607970D01*
X793237Y608069D01*
X793311Y608165D01*
X793389Y608260D01*
X793470Y608351D01*
X793553Y608441D01*
X793639Y608527D01*
X793729Y608610D01*
X793820Y608691D01*
X793915Y608769D01*
X794011Y608843D01*
X794110Y608915D01*
X794212Y608983D01*
X794315Y609048D01*
X794420Y609110D01*
X794528Y609168D01*
X794637Y609223D01*
X794748Y609274D01*
X794860Y609322D01*
X794974Y609366D01*
X795089Y609406D01*
X795206Y609443D01*
X795324Y609475D01*
X795442Y609504D01*
X795562Y609530D01*
X795682Y609551D01*
X795803Y609569D01*
X795924Y609582D01*
X796046Y609592D01*
X796168Y609598D01*
X796290Y609600D01*
X792480Y562610D02*
X792482Y562488D01*
X792488Y562366D01*
X792498Y562244D01*
X792511Y562123D01*
X792529Y562002D01*
X792550Y561882D01*
X792576Y561762D01*
X792605Y561644D01*
X792637Y561526D01*
X792674Y561409D01*
X792714Y561294D01*
X792758Y561180D01*
X792806Y561068D01*
X792857Y560957D01*
X792912Y560848D01*
X792970Y560740D01*
X793032Y560635D01*
X793097Y560532D01*
X793165Y560430D01*
X793237Y560331D01*
X793311Y560235D01*
X793389Y560140D01*
X793470Y560049D01*
X793553Y559959D01*
X793639Y559873D01*
X793729Y559790D01*
X793820Y559709D01*
X793915Y559631D01*
X794011Y559557D01*
X794110Y559485D01*
X794212Y559417D01*
X794315Y559352D01*
X794420Y559290D01*
X794528Y559232D01*
X794637Y559177D01*
X794748Y559126D01*
X794860Y559078D01*
X794974Y559034D01*
X795089Y558994D01*
X795206Y558957D01*
X795324Y558925D01*
X795442Y558896D01*
X795562Y558870D01*
X795682Y558849D01*
X795803Y558831D01*
X795924Y558818D01*
X796046Y558808D01*
X796168Y558802D01*
X796290Y558800D01*
X807720Y605790D02*
X807718Y605912D01*
X807712Y606034D01*
X807702Y606156D01*
X807689Y606277D01*
X807671Y606398D01*
X807650Y606518D01*
X807624Y606638D01*
X807595Y606756D01*
X807563Y606874D01*
X807526Y606991D01*
X807486Y607106D01*
X807442Y607220D01*
X807394Y607332D01*
X807343Y607443D01*
X807288Y607552D01*
X807230Y607660D01*
X807168Y607765D01*
X807103Y607868D01*
X807035Y607970D01*
X806963Y608069D01*
X806889Y608165D01*
X806811Y608260D01*
X806730Y608351D01*
X806647Y608441D01*
X806561Y608527D01*
X806471Y608610D01*
X806380Y608691D01*
X806285Y608769D01*
X806189Y608843D01*
X806090Y608915D01*
X805988Y608983D01*
X805885Y609048D01*
X805780Y609110D01*
X805672Y609168D01*
X805563Y609223D01*
X805452Y609274D01*
X805340Y609322D01*
X805226Y609366D01*
X805111Y609406D01*
X804994Y609443D01*
X804876Y609475D01*
X804758Y609504D01*
X804638Y609530D01*
X804518Y609551D01*
X804397Y609569D01*
X804276Y609582D01*
X804154Y609592D01*
X804032Y609598D01*
X803910Y609600D01*
X807720Y568960D02*
X807720Y562610D01*
X807720Y568960D02*
X806450Y570230D01*
X792480Y568960D02*
X792480Y562610D01*
X792480Y568960D02*
X793750Y570230D01*
X806450Y598170D02*
X807720Y599440D01*
X806450Y598170D02*
X806450Y570230D01*
X793750Y598170D02*
X792480Y599440D01*
X793750Y598170D02*
X793750Y570230D01*
X796290Y609600D02*
X803910Y609600D01*
X807720Y605790D02*
X807720Y599440D01*
X792480Y599440D02*
X792480Y605790D01*
D14*
X800100Y551815D03*
X800100Y616585D03*
D11*
X826135Y616668D02*
X837565Y616668D01*
X826135Y616668D02*
X826135Y619843D01*
X826137Y619954D01*
X826143Y620064D01*
X826152Y620175D01*
X826166Y620285D01*
X826183Y620394D01*
X826204Y620503D01*
X826229Y620611D01*
X826258Y620718D01*
X826290Y620824D01*
X826326Y620929D01*
X826366Y621032D01*
X826409Y621134D01*
X826456Y621235D01*
X826507Y621334D01*
X826560Y621431D01*
X826617Y621525D01*
X826678Y621618D01*
X826741Y621709D01*
X826808Y621798D01*
X826878Y621884D01*
X826951Y621967D01*
X827026Y622049D01*
X827104Y622127D01*
X827186Y622202D01*
X827269Y622275D01*
X827355Y622345D01*
X827444Y622412D01*
X827535Y622475D01*
X827628Y622536D01*
X827723Y622593D01*
X827819Y622646D01*
X827918Y622697D01*
X828019Y622744D01*
X828121Y622787D01*
X828224Y622827D01*
X828329Y622863D01*
X828435Y622895D01*
X828542Y622924D01*
X828650Y622949D01*
X828759Y622970D01*
X828868Y622987D01*
X828978Y623001D01*
X829089Y623010D01*
X829199Y623016D01*
X829310Y623018D01*
X829421Y623016D01*
X829531Y623010D01*
X829642Y623001D01*
X829752Y622987D01*
X829861Y622970D01*
X829970Y622949D01*
X830078Y622924D01*
X830185Y622895D01*
X830291Y622863D01*
X830396Y622827D01*
X830499Y622787D01*
X830601Y622744D01*
X830702Y622697D01*
X830801Y622646D01*
X830898Y622593D01*
X830992Y622536D01*
X831085Y622475D01*
X831176Y622412D01*
X831265Y622345D01*
X831351Y622275D01*
X831434Y622202D01*
X831516Y622127D01*
X831594Y622049D01*
X831669Y621967D01*
X831742Y621884D01*
X831812Y621798D01*
X831879Y621709D01*
X831942Y621618D01*
X832003Y621525D01*
X832060Y621431D01*
X832113Y621334D01*
X832164Y621235D01*
X832211Y621134D01*
X832254Y621032D01*
X832294Y620929D01*
X832330Y620824D01*
X832362Y620718D01*
X832391Y620611D01*
X832416Y620503D01*
X832437Y620394D01*
X832454Y620285D01*
X832468Y620175D01*
X832477Y620064D01*
X832483Y619954D01*
X832485Y619843D01*
X832485Y616668D01*
X832485Y620478D02*
X837565Y623018D01*
X834390Y628015D02*
X834279Y628017D01*
X834169Y628023D01*
X834058Y628032D01*
X833948Y628046D01*
X833839Y628063D01*
X833730Y628084D01*
X833622Y628109D01*
X833515Y628138D01*
X833409Y628170D01*
X833304Y628206D01*
X833201Y628246D01*
X833099Y628289D01*
X832998Y628336D01*
X832899Y628387D01*
X832803Y628440D01*
X832708Y628497D01*
X832615Y628558D01*
X832524Y628621D01*
X832435Y628688D01*
X832349Y628758D01*
X832266Y628831D01*
X832184Y628906D01*
X832106Y628984D01*
X832031Y629066D01*
X831958Y629149D01*
X831888Y629235D01*
X831821Y629324D01*
X831758Y629415D01*
X831697Y629508D01*
X831640Y629603D01*
X831587Y629699D01*
X831536Y629798D01*
X831489Y629899D01*
X831446Y630001D01*
X831406Y630104D01*
X831370Y630209D01*
X831338Y630315D01*
X831309Y630422D01*
X831284Y630530D01*
X831263Y630639D01*
X831246Y630748D01*
X831232Y630858D01*
X831223Y630969D01*
X831217Y631079D01*
X831215Y631190D01*
X831217Y631301D01*
X831223Y631411D01*
X831232Y631522D01*
X831246Y631632D01*
X831263Y631741D01*
X831284Y631850D01*
X831309Y631958D01*
X831338Y632065D01*
X831370Y632171D01*
X831406Y632276D01*
X831446Y632379D01*
X831489Y632481D01*
X831536Y632582D01*
X831587Y632681D01*
X831640Y632778D01*
X831697Y632872D01*
X831758Y632965D01*
X831821Y633056D01*
X831888Y633145D01*
X831958Y633231D01*
X832031Y633314D01*
X832106Y633396D01*
X832184Y633474D01*
X832266Y633549D01*
X832349Y633622D01*
X832435Y633692D01*
X832524Y633759D01*
X832615Y633822D01*
X832708Y633883D01*
X832803Y633940D01*
X832899Y633993D01*
X832998Y634044D01*
X833099Y634091D01*
X833201Y634134D01*
X833304Y634174D01*
X833409Y634210D01*
X833515Y634242D01*
X833622Y634271D01*
X833730Y634296D01*
X833839Y634317D01*
X833948Y634334D01*
X834058Y634348D01*
X834169Y634357D01*
X834279Y634363D01*
X834390Y634365D01*
X834501Y634363D01*
X834611Y634357D01*
X834722Y634348D01*
X834832Y634334D01*
X834941Y634317D01*
X835050Y634296D01*
X835158Y634271D01*
X835265Y634242D01*
X835371Y634210D01*
X835476Y634174D01*
X835579Y634134D01*
X835681Y634091D01*
X835782Y634044D01*
X835881Y633993D01*
X835978Y633940D01*
X836072Y633883D01*
X836165Y633822D01*
X836256Y633759D01*
X836345Y633692D01*
X836431Y633622D01*
X836514Y633549D01*
X836596Y633474D01*
X836674Y633396D01*
X836749Y633314D01*
X836822Y633231D01*
X836892Y633145D01*
X836959Y633056D01*
X837022Y632965D01*
X837083Y632872D01*
X837140Y632777D01*
X837193Y632681D01*
X837244Y632582D01*
X837291Y632481D01*
X837334Y632379D01*
X837374Y632276D01*
X837410Y632171D01*
X837442Y632065D01*
X837471Y631958D01*
X837496Y631850D01*
X837517Y631741D01*
X837534Y631632D01*
X837548Y631522D01*
X837557Y631411D01*
X837563Y631301D01*
X837565Y631190D01*
X837563Y631079D01*
X837557Y630969D01*
X837548Y630858D01*
X837534Y630748D01*
X837517Y630639D01*
X837496Y630530D01*
X837471Y630422D01*
X837442Y630315D01*
X837410Y630209D01*
X837374Y630104D01*
X837334Y630001D01*
X837291Y629899D01*
X837244Y629798D01*
X837193Y629699D01*
X837140Y629603D01*
X837083Y629508D01*
X837022Y629415D01*
X836959Y629324D01*
X836892Y629235D01*
X836822Y629149D01*
X836749Y629066D01*
X836674Y628984D01*
X836596Y628906D01*
X836514Y628831D01*
X836431Y628758D01*
X836345Y628688D01*
X836256Y628621D01*
X836165Y628558D01*
X836072Y628497D01*
X835978Y628440D01*
X835881Y628387D01*
X835782Y628336D01*
X835681Y628289D01*
X835579Y628246D01*
X835476Y628206D01*
X835371Y628170D01*
X835265Y628138D01*
X835158Y628109D01*
X835050Y628084D01*
X834941Y628063D01*
X834832Y628046D01*
X834722Y628032D01*
X834611Y628023D01*
X834501Y628017D01*
X834390Y628015D01*
X828675Y628650D02*
X828575Y628652D01*
X828476Y628658D01*
X828376Y628668D01*
X828278Y628681D01*
X828179Y628699D01*
X828082Y628720D01*
X827986Y628745D01*
X827890Y628774D01*
X827796Y628807D01*
X827703Y628843D01*
X827612Y628883D01*
X827522Y628927D01*
X827434Y628974D01*
X827348Y629024D01*
X827264Y629078D01*
X827182Y629135D01*
X827103Y629195D01*
X827025Y629259D01*
X826951Y629325D01*
X826879Y629394D01*
X826810Y629466D01*
X826744Y629540D01*
X826680Y629618D01*
X826620Y629697D01*
X826563Y629779D01*
X826509Y629863D01*
X826459Y629949D01*
X826412Y630037D01*
X826368Y630127D01*
X826328Y630218D01*
X826292Y630311D01*
X826259Y630405D01*
X826230Y630501D01*
X826205Y630597D01*
X826184Y630694D01*
X826166Y630793D01*
X826153Y630891D01*
X826143Y630991D01*
X826137Y631090D01*
X826135Y631190D01*
X826137Y631290D01*
X826143Y631389D01*
X826153Y631489D01*
X826166Y631587D01*
X826184Y631686D01*
X826205Y631783D01*
X826230Y631879D01*
X826259Y631975D01*
X826292Y632069D01*
X826328Y632162D01*
X826368Y632253D01*
X826412Y632343D01*
X826459Y632431D01*
X826509Y632517D01*
X826563Y632601D01*
X826620Y632683D01*
X826680Y632762D01*
X826744Y632840D01*
X826810Y632914D01*
X826879Y632986D01*
X826951Y633055D01*
X827025Y633121D01*
X827103Y633185D01*
X827182Y633245D01*
X827264Y633302D01*
X827348Y633356D01*
X827434Y633406D01*
X827522Y633453D01*
X827612Y633497D01*
X827703Y633537D01*
X827796Y633573D01*
X827890Y633606D01*
X827986Y633635D01*
X828082Y633660D01*
X828179Y633681D01*
X828278Y633699D01*
X828376Y633712D01*
X828476Y633722D01*
X828575Y633728D01*
X828675Y633730D01*
X828775Y633728D01*
X828874Y633722D01*
X828974Y633712D01*
X829072Y633699D01*
X829171Y633681D01*
X829268Y633660D01*
X829364Y633635D01*
X829460Y633606D01*
X829554Y633573D01*
X829647Y633537D01*
X829738Y633497D01*
X829828Y633453D01*
X829916Y633406D01*
X830002Y633356D01*
X830086Y633302D01*
X830168Y633245D01*
X830247Y633185D01*
X830325Y633121D01*
X830399Y633055D01*
X830471Y632986D01*
X830540Y632914D01*
X830606Y632840D01*
X830670Y632762D01*
X830730Y632683D01*
X830787Y632601D01*
X830841Y632517D01*
X830891Y632431D01*
X830938Y632343D01*
X830982Y632253D01*
X831022Y632162D01*
X831058Y632069D01*
X831091Y631975D01*
X831120Y631879D01*
X831145Y631783D01*
X831166Y631686D01*
X831184Y631587D01*
X831197Y631489D01*
X831207Y631389D01*
X831213Y631290D01*
X831215Y631190D01*
X831213Y631090D01*
X831207Y630991D01*
X831197Y630891D01*
X831184Y630793D01*
X831166Y630694D01*
X831145Y630597D01*
X831120Y630501D01*
X831091Y630405D01*
X831058Y630311D01*
X831022Y630218D01*
X830982Y630127D01*
X830938Y630037D01*
X830891Y629949D01*
X830841Y629863D01*
X830787Y629779D01*
X830730Y629697D01*
X830670Y629618D01*
X830606Y629540D01*
X830540Y629466D01*
X830471Y629394D01*
X830399Y629325D01*
X830325Y629259D01*
X830247Y629195D01*
X830168Y629135D01*
X830086Y629078D01*
X830002Y629024D01*
X829916Y628974D01*
X829828Y628927D01*
X829738Y628883D01*
X829647Y628843D01*
X829554Y628807D01*
X829460Y628774D01*
X829364Y628745D01*
X829268Y628720D01*
X829171Y628699D01*
X829072Y628681D01*
X828974Y628668D01*
X828874Y628658D01*
X828775Y628652D01*
X828675Y628650D01*
X93354Y707391D02*
X92967Y707895D01*
X92591Y708408D01*
X92228Y708930D01*
X91877Y709460D01*
X91540Y709998D01*
X91215Y710545D01*
X90903Y711099D01*
X90604Y711660D01*
X90319Y712229D01*
X90048Y712804D01*
X89790Y713385D01*
X89547Y713972D01*
X89317Y714565D01*
X89102Y715163D01*
X88901Y715766D01*
X88714Y716374D01*
X88542Y716986D01*
X88384Y717602D01*
X88242Y718222D01*
X88114Y718844D01*
X88001Y719470D01*
X87902Y720098D01*
X87819Y720728D01*
X87751Y721361D01*
X87751Y721360D02*
X87697Y722009D01*
X87659Y722658D01*
X87637Y723309D01*
X87630Y723960D01*
X87639Y724611D01*
X87665Y725261D01*
X87706Y725911D01*
X87763Y726559D01*
X87836Y727206D01*
X87924Y727851D01*
X88029Y728494D01*
X88149Y729134D01*
X88284Y729770D01*
X88435Y730404D01*
X88602Y731033D01*
X88783Y731658D01*
X88980Y732279D01*
X89192Y732894D01*
X89419Y733504D01*
X89661Y734109D01*
X89918Y734707D01*
X90189Y735299D01*
X90474Y735884D01*
X90774Y736462D01*
X91087Y737032D01*
X91415Y737595D01*
X91756Y738149D01*
X92110Y738695D01*
X92478Y739232D01*
X92859Y739761D01*
X93252Y740279D01*
X93658Y740788D01*
X94076Y741287D01*
X94507Y741775D01*
X94949Y742253D01*
X95403Y742720D01*
X95868Y743175D01*
X96344Y743619D01*
X96830Y744052D01*
X97327Y744472D01*
X97834Y744880D01*
X98351Y745276D01*
X98878Y745659D01*
X99414Y746029D01*
X99958Y746386D01*
X100511Y746729D01*
X101072Y747059D01*
X101642Y747375D01*
X102218Y747677D01*
X102802Y747964D01*
X103393Y748238D01*
X103990Y748497D01*
X104594Y748741D01*
X105203Y748971D01*
X105817Y749185D01*
X106437Y749385D01*
X122163Y749385D02*
X122778Y749186D01*
X123389Y748974D01*
X123994Y748746D01*
X124593Y748504D01*
X125186Y748247D01*
X125773Y747976D01*
X126353Y747691D01*
X126926Y747392D01*
X127492Y747079D01*
X128050Y746752D01*
X128600Y746412D01*
X129141Y746059D01*
X129674Y745693D01*
X130197Y745314D01*
X130712Y744922D01*
X131216Y744519D01*
X131711Y744102D01*
X132196Y743675D01*
X132670Y743235D01*
X133133Y742784D01*
X133585Y742322D01*
X134026Y741849D01*
X134455Y741366D01*
X134872Y740872D01*
X135278Y740369D01*
X135671Y739856D01*
X136051Y739333D01*
X136419Y738801D01*
X136773Y738261D01*
X137115Y737712D01*
X137443Y737155D01*
X137757Y736590D01*
X138058Y736018D01*
X138345Y735439D01*
X138617Y734852D01*
X138876Y734260D01*
X139119Y733661D01*
X139349Y733057D01*
X139563Y732447D01*
X139763Y731832D01*
X139948Y731213D01*
X140118Y730589D01*
X140272Y729961D01*
X140411Y729330D01*
X140535Y728696D01*
X140644Y728058D01*
X140737Y727419D01*
X140814Y726777D01*
X140876Y726134D01*
X140923Y725489D01*
X140953Y724843D01*
X140968Y724197D01*
X140968Y723551D01*
X140951Y722904D01*
X140919Y722259D01*
X140872Y721614D01*
X140809Y720971D01*
X140730Y720329D01*
X140636Y719690D01*
X140526Y719053D01*
X140401Y718418D01*
X140260Y717787D01*
X140104Y717160D01*
X139933Y716537D01*
X139747Y715918D01*
X139546Y715303D01*
X139331Y714694D01*
X139100Y714090D01*
X138855Y713492D01*
X138596Y712900D01*
X138322Y712314D01*
X138034Y711735D01*
X137732Y711164D01*
X137417Y710599D01*
X137088Y710043D01*
X136745Y709495D01*
X136389Y708955D01*
X136021Y708424D01*
X135639Y707902D01*
X135245Y707390D01*
X93355Y707390D01*
X91763Y721360D02*
X87751Y721360D01*
X111437Y721360D02*
X117163Y721360D01*
X136837Y721360D02*
X140849Y721360D01*
X149860Y730885D02*
X149860Y742315D01*
X146685Y742315D02*
X153035Y742315D01*
X157353Y739775D02*
X160528Y742315D01*
X160528Y730885D01*
X157353Y730885D02*
X163703Y730885D01*
X290951Y708661D02*
X291019Y708028D01*
X291102Y707398D01*
X291201Y706770D01*
X291314Y706144D01*
X291442Y705522D01*
X291584Y704902D01*
X291742Y704286D01*
X291914Y703674D01*
X292101Y703066D01*
X292302Y702463D01*
X292517Y701865D01*
X292747Y701272D01*
X292990Y700685D01*
X293248Y700104D01*
X293519Y699529D01*
X293804Y698960D01*
X294103Y698399D01*
X294415Y697845D01*
X294740Y697298D01*
X295077Y696760D01*
X295428Y696230D01*
X295791Y695708D01*
X296167Y695195D01*
X296554Y694691D01*
X290951Y708660D02*
X290897Y709309D01*
X290859Y709958D01*
X290837Y710609D01*
X290830Y711260D01*
X290839Y711911D01*
X290865Y712561D01*
X290906Y713211D01*
X290963Y713859D01*
X291036Y714506D01*
X291124Y715151D01*
X291229Y715794D01*
X291349Y716434D01*
X291484Y717070D01*
X291635Y717704D01*
X291802Y718333D01*
X291983Y718958D01*
X292180Y719579D01*
X292392Y720194D01*
X292619Y720804D01*
X292861Y721409D01*
X293118Y722007D01*
X293389Y722599D01*
X293674Y723184D01*
X293974Y723762D01*
X294287Y724332D01*
X294615Y724895D01*
X294956Y725449D01*
X295310Y725995D01*
X295678Y726532D01*
X296059Y727061D01*
X296452Y727579D01*
X296858Y728088D01*
X297276Y728587D01*
X297707Y729075D01*
X298149Y729553D01*
X298603Y730020D01*
X299068Y730475D01*
X299544Y730919D01*
X300030Y731352D01*
X300527Y731772D01*
X301034Y732180D01*
X301551Y732576D01*
X302078Y732959D01*
X302614Y733329D01*
X303158Y733686D01*
X303711Y734029D01*
X304272Y734359D01*
X304842Y734675D01*
X305418Y734977D01*
X306002Y735264D01*
X306593Y735538D01*
X307190Y735797D01*
X307794Y736041D01*
X308403Y736271D01*
X309017Y736485D01*
X309637Y736685D01*
X325363Y736685D02*
X325978Y736486D01*
X326589Y736274D01*
X327194Y736046D01*
X327793Y735804D01*
X328386Y735547D01*
X328973Y735276D01*
X329553Y734991D01*
X330126Y734692D01*
X330692Y734379D01*
X331250Y734052D01*
X331800Y733712D01*
X332341Y733359D01*
X332874Y732993D01*
X333397Y732614D01*
X333912Y732222D01*
X334416Y731819D01*
X334911Y731402D01*
X335396Y730975D01*
X335870Y730535D01*
X336333Y730084D01*
X336785Y729622D01*
X337226Y729149D01*
X337655Y728666D01*
X338072Y728172D01*
X338478Y727669D01*
X338871Y727156D01*
X339251Y726633D01*
X339619Y726101D01*
X339973Y725561D01*
X340315Y725012D01*
X340643Y724455D01*
X340957Y723890D01*
X341258Y723318D01*
X341545Y722739D01*
X341817Y722152D01*
X342076Y721560D01*
X342319Y720961D01*
X342549Y720357D01*
X342763Y719747D01*
X342963Y719132D01*
X343148Y718513D01*
X343318Y717889D01*
X343472Y717261D01*
X343611Y716630D01*
X343735Y715996D01*
X343844Y715358D01*
X343937Y714719D01*
X344014Y714077D01*
X344076Y713434D01*
X344123Y712789D01*
X344153Y712143D01*
X344168Y711497D01*
X344168Y710851D01*
X344151Y710204D01*
X344119Y709559D01*
X344072Y708914D01*
X344009Y708271D01*
X343930Y707629D01*
X343836Y706990D01*
X343726Y706353D01*
X343601Y705718D01*
X343460Y705087D01*
X343304Y704460D01*
X343133Y703837D01*
X342947Y703218D01*
X342746Y702603D01*
X342531Y701994D01*
X342300Y701390D01*
X342055Y700792D01*
X341796Y700200D01*
X341522Y699614D01*
X341234Y699035D01*
X340932Y698464D01*
X340617Y697899D01*
X340288Y697343D01*
X339945Y696795D01*
X339589Y696255D01*
X339221Y695724D01*
X338839Y695202D01*
X338445Y694690D01*
X296555Y694690D01*
X294963Y708660D02*
X290951Y708660D01*
X314637Y708660D02*
X320363Y708660D01*
X340037Y708660D02*
X344049Y708660D01*
X353060Y718185D02*
X353060Y729615D01*
X349885Y729615D02*
X356235Y729615D01*
X364046Y729616D02*
X364150Y729614D01*
X364255Y729608D01*
X364359Y729599D01*
X364462Y729586D01*
X364565Y729568D01*
X364667Y729548D01*
X364769Y729523D01*
X364869Y729495D01*
X364969Y729463D01*
X365067Y729427D01*
X365164Y729388D01*
X365259Y729346D01*
X365353Y729300D01*
X365445Y729250D01*
X365535Y729198D01*
X365623Y729142D01*
X365709Y729082D01*
X365793Y729020D01*
X365874Y728955D01*
X365953Y728887D01*
X366030Y728815D01*
X366103Y728742D01*
X366175Y728665D01*
X366243Y728586D01*
X366308Y728505D01*
X366370Y728421D01*
X366430Y728335D01*
X366486Y728247D01*
X366538Y728157D01*
X366588Y728065D01*
X366634Y727971D01*
X366676Y727876D01*
X366715Y727779D01*
X366751Y727681D01*
X366783Y727581D01*
X366811Y727481D01*
X366836Y727379D01*
X366856Y727277D01*
X366874Y727174D01*
X366887Y727071D01*
X366896Y726967D01*
X366902Y726862D01*
X366904Y726758D01*
X364046Y729615D02*
X363928Y729613D01*
X363809Y729607D01*
X363691Y729598D01*
X363574Y729585D01*
X363457Y729567D01*
X363340Y729547D01*
X363224Y729522D01*
X363109Y729494D01*
X362996Y729461D01*
X362883Y729426D01*
X362771Y729386D01*
X362661Y729344D01*
X362552Y729297D01*
X362444Y729247D01*
X362339Y729194D01*
X362235Y729137D01*
X362133Y729077D01*
X362033Y729014D01*
X361935Y728947D01*
X361839Y728878D01*
X361746Y728805D01*
X361655Y728729D01*
X361566Y728651D01*
X361480Y728569D01*
X361397Y728485D01*
X361316Y728399D01*
X361239Y728309D01*
X361164Y728218D01*
X361092Y728124D01*
X361023Y728027D01*
X360958Y727929D01*
X360895Y727828D01*
X360836Y727725D01*
X360780Y727621D01*
X360728Y727515D01*
X360679Y727407D01*
X360634Y727298D01*
X360592Y727187D01*
X360554Y727075D01*
X365951Y724536D02*
X366027Y724611D01*
X366102Y724690D01*
X366173Y724771D01*
X366242Y724855D01*
X366307Y724941D01*
X366369Y725029D01*
X366429Y725119D01*
X366485Y725211D01*
X366538Y725306D01*
X366587Y725402D01*
X366633Y725500D01*
X366676Y725599D01*
X366715Y725700D01*
X366750Y725802D01*
X366782Y725905D01*
X366810Y726009D01*
X366835Y726114D01*
X366856Y726221D01*
X366873Y726327D01*
X366886Y726434D01*
X366895Y726542D01*
X366901Y726650D01*
X366903Y726758D01*
X365951Y724535D02*
X360553Y718185D01*
X366903Y718185D01*
X570351Y708661D02*
X570419Y708028D01*
X570502Y707398D01*
X570601Y706770D01*
X570714Y706144D01*
X570842Y705522D01*
X570984Y704902D01*
X571142Y704286D01*
X571314Y703674D01*
X571501Y703066D01*
X571702Y702463D01*
X571917Y701865D01*
X572147Y701272D01*
X572390Y700685D01*
X572648Y700104D01*
X572919Y699529D01*
X573204Y698960D01*
X573503Y698399D01*
X573815Y697845D01*
X574140Y697298D01*
X574477Y696760D01*
X574828Y696230D01*
X575191Y695708D01*
X575567Y695195D01*
X575954Y694691D01*
X570351Y708660D02*
X570297Y709309D01*
X570259Y709958D01*
X570237Y710609D01*
X570230Y711260D01*
X570239Y711911D01*
X570265Y712561D01*
X570306Y713211D01*
X570363Y713859D01*
X570436Y714506D01*
X570524Y715151D01*
X570629Y715794D01*
X570749Y716434D01*
X570884Y717070D01*
X571035Y717704D01*
X571202Y718333D01*
X571383Y718958D01*
X571580Y719579D01*
X571792Y720194D01*
X572019Y720804D01*
X572261Y721409D01*
X572518Y722007D01*
X572789Y722599D01*
X573074Y723184D01*
X573374Y723762D01*
X573687Y724332D01*
X574015Y724895D01*
X574356Y725449D01*
X574710Y725995D01*
X575078Y726532D01*
X575459Y727061D01*
X575852Y727579D01*
X576258Y728088D01*
X576676Y728587D01*
X577107Y729075D01*
X577549Y729553D01*
X578003Y730020D01*
X578468Y730475D01*
X578944Y730919D01*
X579430Y731352D01*
X579927Y731772D01*
X580434Y732180D01*
X580951Y732576D01*
X581478Y732959D01*
X582014Y733329D01*
X582558Y733686D01*
X583111Y734029D01*
X583672Y734359D01*
X584242Y734675D01*
X584818Y734977D01*
X585402Y735264D01*
X585993Y735538D01*
X586590Y735797D01*
X587194Y736041D01*
X587803Y736271D01*
X588417Y736485D01*
X589037Y736685D01*
X604763Y736685D02*
X605378Y736486D01*
X605989Y736274D01*
X606594Y736046D01*
X607193Y735804D01*
X607786Y735547D01*
X608373Y735276D01*
X608953Y734991D01*
X609526Y734692D01*
X610092Y734379D01*
X610650Y734052D01*
X611200Y733712D01*
X611741Y733359D01*
X612274Y732993D01*
X612797Y732614D01*
X613312Y732222D01*
X613816Y731819D01*
X614311Y731402D01*
X614796Y730975D01*
X615270Y730535D01*
X615733Y730084D01*
X616185Y729622D01*
X616626Y729149D01*
X617055Y728666D01*
X617472Y728172D01*
X617878Y727669D01*
X618271Y727156D01*
X618651Y726633D01*
X619019Y726101D01*
X619373Y725561D01*
X619715Y725012D01*
X620043Y724455D01*
X620357Y723890D01*
X620658Y723318D01*
X620945Y722739D01*
X621217Y722152D01*
X621476Y721560D01*
X621719Y720961D01*
X621949Y720357D01*
X622163Y719747D01*
X622363Y719132D01*
X622548Y718513D01*
X622718Y717889D01*
X622872Y717261D01*
X623011Y716630D01*
X623135Y715996D01*
X623244Y715358D01*
X623337Y714719D01*
X623414Y714077D01*
X623476Y713434D01*
X623523Y712789D01*
X623553Y712143D01*
X623568Y711497D01*
X623568Y710851D01*
X623551Y710204D01*
X623519Y709559D01*
X623472Y708914D01*
X623409Y708271D01*
X623330Y707629D01*
X623236Y706990D01*
X623126Y706353D01*
X623001Y705718D01*
X622860Y705087D01*
X622704Y704460D01*
X622533Y703837D01*
X622347Y703218D01*
X622146Y702603D01*
X621931Y701994D01*
X621700Y701390D01*
X621455Y700792D01*
X621196Y700200D01*
X620922Y699614D01*
X620634Y699035D01*
X620332Y698464D01*
X620017Y697899D01*
X619688Y697343D01*
X619345Y696795D01*
X618989Y696255D01*
X618621Y695724D01*
X618239Y695202D01*
X617845Y694690D01*
X575955Y694690D01*
X574363Y708660D02*
X570351Y708660D01*
X594037Y708660D02*
X599763Y708660D01*
X619437Y708660D02*
X623449Y708660D01*
X632460Y718185D02*
X632460Y729615D01*
X629285Y729615D02*
X635635Y729615D01*
X639953Y718185D02*
X643128Y718185D01*
X643239Y718187D01*
X643349Y718193D01*
X643460Y718202D01*
X643570Y718216D01*
X643679Y718233D01*
X643788Y718254D01*
X643896Y718279D01*
X644003Y718308D01*
X644109Y718340D01*
X644214Y718376D01*
X644317Y718416D01*
X644419Y718459D01*
X644520Y718506D01*
X644619Y718557D01*
X644716Y718610D01*
X644810Y718667D01*
X644903Y718728D01*
X644994Y718791D01*
X645083Y718858D01*
X645169Y718928D01*
X645252Y719001D01*
X645334Y719076D01*
X645412Y719154D01*
X645487Y719236D01*
X645560Y719319D01*
X645630Y719405D01*
X645697Y719494D01*
X645760Y719585D01*
X645821Y719678D01*
X645878Y719773D01*
X645931Y719869D01*
X645982Y719968D01*
X646029Y720069D01*
X646072Y720171D01*
X646112Y720274D01*
X646148Y720379D01*
X646180Y720485D01*
X646209Y720592D01*
X646234Y720700D01*
X646255Y720809D01*
X646272Y720918D01*
X646286Y721028D01*
X646295Y721139D01*
X646301Y721249D01*
X646303Y721360D01*
X646301Y721471D01*
X646295Y721581D01*
X646286Y721692D01*
X646272Y721802D01*
X646255Y721911D01*
X646234Y722020D01*
X646209Y722128D01*
X646180Y722235D01*
X646148Y722341D01*
X646112Y722446D01*
X646072Y722549D01*
X646029Y722651D01*
X645982Y722752D01*
X645931Y722851D01*
X645878Y722947D01*
X645821Y723042D01*
X645760Y723135D01*
X645697Y723226D01*
X645630Y723315D01*
X645560Y723401D01*
X645487Y723484D01*
X645412Y723566D01*
X645334Y723644D01*
X645252Y723719D01*
X645169Y723792D01*
X645083Y723862D01*
X644994Y723929D01*
X644903Y723992D01*
X644810Y724053D01*
X644716Y724110D01*
X644619Y724163D01*
X644520Y724214D01*
X644419Y724261D01*
X644317Y724304D01*
X644214Y724344D01*
X644109Y724380D01*
X644003Y724412D01*
X643896Y724441D01*
X643788Y724466D01*
X643679Y724487D01*
X643570Y724504D01*
X643460Y724518D01*
X643349Y724527D01*
X643239Y724533D01*
X643128Y724535D01*
X643763Y729615D02*
X639953Y729615D01*
X643763Y729615D02*
X643863Y729613D01*
X643962Y729607D01*
X644062Y729597D01*
X644160Y729584D01*
X644259Y729566D01*
X644356Y729545D01*
X644452Y729520D01*
X644548Y729491D01*
X644642Y729458D01*
X644735Y729422D01*
X644826Y729382D01*
X644916Y729338D01*
X645004Y729291D01*
X645090Y729241D01*
X645174Y729187D01*
X645256Y729130D01*
X645335Y729070D01*
X645413Y729006D01*
X645487Y728940D01*
X645559Y728871D01*
X645628Y728799D01*
X645694Y728725D01*
X645758Y728647D01*
X645818Y728568D01*
X645875Y728486D01*
X645929Y728402D01*
X645979Y728316D01*
X646026Y728228D01*
X646070Y728138D01*
X646110Y728047D01*
X646146Y727954D01*
X646179Y727860D01*
X646208Y727764D01*
X646233Y727668D01*
X646254Y727571D01*
X646272Y727472D01*
X646285Y727374D01*
X646295Y727274D01*
X646301Y727175D01*
X646303Y727075D01*
X646301Y726975D01*
X646295Y726876D01*
X646285Y726776D01*
X646272Y726678D01*
X646254Y726579D01*
X646233Y726482D01*
X646208Y726386D01*
X646179Y726290D01*
X646146Y726196D01*
X646110Y726103D01*
X646070Y726012D01*
X646026Y725922D01*
X645979Y725834D01*
X645929Y725748D01*
X645875Y725664D01*
X645818Y725582D01*
X645758Y725503D01*
X645694Y725425D01*
X645628Y725351D01*
X645559Y725279D01*
X645487Y725210D01*
X645413Y725144D01*
X645335Y725080D01*
X645256Y725020D01*
X645174Y724963D01*
X645090Y724909D01*
X645004Y724859D01*
X644916Y724812D01*
X644826Y724768D01*
X644735Y724728D01*
X644642Y724692D01*
X644548Y724659D01*
X644452Y724630D01*
X644356Y724605D01*
X644259Y724584D01*
X644160Y724566D01*
X644062Y724553D01*
X643962Y724543D01*
X643863Y724537D01*
X643763Y724535D01*
X641223Y724535D01*
X798951Y708661D02*
X799019Y708028D01*
X799102Y707398D01*
X799201Y706770D01*
X799314Y706144D01*
X799442Y705522D01*
X799584Y704902D01*
X799742Y704286D01*
X799914Y703674D01*
X800101Y703066D01*
X800302Y702463D01*
X800517Y701865D01*
X800747Y701272D01*
X800990Y700685D01*
X801248Y700104D01*
X801519Y699529D01*
X801804Y698960D01*
X802103Y698399D01*
X802415Y697845D01*
X802740Y697298D01*
X803077Y696760D01*
X803428Y696230D01*
X803791Y695708D01*
X804167Y695195D01*
X804554Y694691D01*
X798951Y708660D02*
X798897Y709309D01*
X798859Y709958D01*
X798837Y710609D01*
X798830Y711260D01*
X798839Y711911D01*
X798865Y712561D01*
X798906Y713211D01*
X798963Y713859D01*
X799036Y714506D01*
X799124Y715151D01*
X799229Y715794D01*
X799349Y716434D01*
X799484Y717070D01*
X799635Y717704D01*
X799802Y718333D01*
X799983Y718958D01*
X800180Y719579D01*
X800392Y720194D01*
X800619Y720804D01*
X800861Y721409D01*
X801118Y722007D01*
X801389Y722599D01*
X801674Y723184D01*
X801974Y723762D01*
X802287Y724332D01*
X802615Y724895D01*
X802956Y725449D01*
X803310Y725995D01*
X803678Y726532D01*
X804059Y727061D01*
X804452Y727579D01*
X804858Y728088D01*
X805276Y728587D01*
X805707Y729075D01*
X806149Y729553D01*
X806603Y730020D01*
X807068Y730475D01*
X807544Y730919D01*
X808030Y731352D01*
X808527Y731772D01*
X809034Y732180D01*
X809551Y732576D01*
X810078Y732959D01*
X810614Y733329D01*
X811158Y733686D01*
X811711Y734029D01*
X812272Y734359D01*
X812842Y734675D01*
X813418Y734977D01*
X814002Y735264D01*
X814593Y735538D01*
X815190Y735797D01*
X815794Y736041D01*
X816403Y736271D01*
X817017Y736485D01*
X817637Y736685D01*
X833363Y736685D02*
X833978Y736486D01*
X834589Y736274D01*
X835194Y736046D01*
X835793Y735804D01*
X836386Y735547D01*
X836973Y735276D01*
X837553Y734991D01*
X838126Y734692D01*
X838692Y734379D01*
X839250Y734052D01*
X839800Y733712D01*
X840341Y733359D01*
X840874Y732993D01*
X841397Y732614D01*
X841912Y732222D01*
X842416Y731819D01*
X842911Y731402D01*
X843396Y730975D01*
X843870Y730535D01*
X844333Y730084D01*
X844785Y729622D01*
X845226Y729149D01*
X845655Y728666D01*
X846072Y728172D01*
X846478Y727669D01*
X846871Y727156D01*
X847251Y726633D01*
X847619Y726101D01*
X847973Y725561D01*
X848315Y725012D01*
X848643Y724455D01*
X848957Y723890D01*
X849258Y723318D01*
X849545Y722739D01*
X849817Y722152D01*
X850076Y721560D01*
X850319Y720961D01*
X850549Y720357D01*
X850763Y719747D01*
X850963Y719132D01*
X851148Y718513D01*
X851318Y717889D01*
X851472Y717261D01*
X851611Y716630D01*
X851735Y715996D01*
X851844Y715358D01*
X851937Y714719D01*
X852014Y714077D01*
X852076Y713434D01*
X852123Y712789D01*
X852153Y712143D01*
X852168Y711497D01*
X852168Y710851D01*
X852151Y710204D01*
X852119Y709559D01*
X852072Y708914D01*
X852009Y708271D01*
X851930Y707629D01*
X851836Y706990D01*
X851726Y706353D01*
X851601Y705718D01*
X851460Y705087D01*
X851304Y704460D01*
X851133Y703837D01*
X850947Y703218D01*
X850746Y702603D01*
X850531Y701994D01*
X850300Y701390D01*
X850055Y700792D01*
X849796Y700200D01*
X849522Y699614D01*
X849234Y699035D01*
X848932Y698464D01*
X848617Y697899D01*
X848288Y697343D01*
X847945Y696795D01*
X847589Y696255D01*
X847221Y695724D01*
X846839Y695202D01*
X846445Y694690D01*
X804555Y694690D01*
X802963Y708660D02*
X798951Y708660D01*
X822637Y708660D02*
X828363Y708660D01*
X848037Y708660D02*
X852049Y708660D01*
X861060Y718185D02*
X861060Y729615D01*
X857885Y729615D02*
X864235Y729615D01*
X871093Y729615D02*
X868553Y720725D01*
X874903Y720725D01*
X872998Y723265D02*
X872998Y718185D01*
D12*
X214750Y229890D02*
X214750Y201910D01*
X140850Y201910D01*
X140850Y229890D01*
X214750Y229890D01*
D11*
X125998Y211737D02*
X122555Y216041D01*
X138049Y216041D01*
X138049Y211737D02*
X138049Y220345D01*
X234569Y218581D02*
X234569Y214277D01*
X234569Y218581D02*
X234567Y218711D01*
X234561Y218841D01*
X234551Y218971D01*
X234538Y219100D01*
X234520Y219229D01*
X234499Y219357D01*
X234473Y219484D01*
X234444Y219611D01*
X234411Y219737D01*
X234374Y219861D01*
X234334Y219985D01*
X234289Y220107D01*
X234241Y220228D01*
X234190Y220347D01*
X234135Y220465D01*
X234076Y220581D01*
X234014Y220695D01*
X233948Y220808D01*
X233879Y220918D01*
X233807Y221026D01*
X233732Y221132D01*
X233653Y221235D01*
X233571Y221336D01*
X233487Y221435D01*
X233399Y221531D01*
X233308Y221624D01*
X233215Y221715D01*
X233119Y221803D01*
X233020Y221887D01*
X232919Y221969D01*
X232816Y222048D01*
X232710Y222123D01*
X232602Y222195D01*
X232492Y222264D01*
X232379Y222330D01*
X232265Y222392D01*
X232149Y222451D01*
X232031Y222506D01*
X231912Y222557D01*
X231791Y222605D01*
X231669Y222650D01*
X231545Y222690D01*
X231421Y222727D01*
X231295Y222760D01*
X231168Y222789D01*
X231041Y222815D01*
X230913Y222836D01*
X230784Y222854D01*
X230655Y222867D01*
X230525Y222877D01*
X230395Y222883D01*
X230265Y222885D01*
X230135Y222883D01*
X230005Y222877D01*
X229875Y222867D01*
X229746Y222854D01*
X229617Y222836D01*
X229489Y222815D01*
X229362Y222789D01*
X229235Y222760D01*
X229109Y222727D01*
X228985Y222690D01*
X228861Y222650D01*
X228739Y222605D01*
X228618Y222557D01*
X228499Y222506D01*
X228381Y222451D01*
X228265Y222392D01*
X228151Y222330D01*
X228038Y222264D01*
X227928Y222195D01*
X227820Y222123D01*
X227714Y222048D01*
X227611Y221969D01*
X227510Y221887D01*
X227411Y221803D01*
X227315Y221715D01*
X227222Y221624D01*
X227131Y221531D01*
X227043Y221435D01*
X226959Y221336D01*
X226877Y221235D01*
X226798Y221132D01*
X226723Y221026D01*
X226651Y220918D01*
X226582Y220808D01*
X226516Y220695D01*
X226454Y220581D01*
X226395Y220465D01*
X226340Y220347D01*
X226289Y220228D01*
X226241Y220107D01*
X226196Y219985D01*
X226156Y219861D01*
X226119Y219737D01*
X226086Y219611D01*
X226057Y219484D01*
X226031Y219357D01*
X226010Y219229D01*
X225992Y219100D01*
X225979Y218971D01*
X225969Y218841D01*
X225963Y218711D01*
X225961Y218581D01*
X219075Y219442D02*
X219075Y214277D01*
X219075Y219442D02*
X219077Y219558D01*
X219083Y219674D01*
X219093Y219790D01*
X219106Y219906D01*
X219124Y220021D01*
X219145Y220135D01*
X219171Y220249D01*
X219200Y220361D01*
X219233Y220473D01*
X219270Y220583D01*
X219310Y220692D01*
X219354Y220800D01*
X219402Y220906D01*
X219453Y221010D01*
X219508Y221113D01*
X219566Y221214D01*
X219627Y221312D01*
X219692Y221409D01*
X219760Y221503D01*
X219831Y221595D01*
X219906Y221685D01*
X219983Y221772D01*
X220063Y221856D01*
X220146Y221937D01*
X220232Y222016D01*
X220320Y222092D01*
X220411Y222165D01*
X220504Y222234D01*
X220599Y222301D01*
X220697Y222364D01*
X220797Y222424D01*
X220898Y222480D01*
X221002Y222533D01*
X221107Y222583D01*
X221214Y222628D01*
X221322Y222671D01*
X221432Y222709D01*
X221543Y222744D01*
X221655Y222775D01*
X221768Y222802D01*
X221882Y222826D01*
X221997Y222845D01*
X222112Y222861D01*
X222228Y222873D01*
X222344Y222881D01*
X222460Y222885D01*
X222576Y222885D01*
X222692Y222881D01*
X222808Y222873D01*
X222924Y222861D01*
X223039Y222845D01*
X223154Y222826D01*
X223268Y222802D01*
X223381Y222775D01*
X223493Y222744D01*
X223604Y222709D01*
X223714Y222671D01*
X223822Y222628D01*
X223929Y222583D01*
X224034Y222533D01*
X224138Y222480D01*
X224240Y222424D01*
X224339Y222364D01*
X224437Y222301D01*
X224532Y222234D01*
X224625Y222165D01*
X224716Y222092D01*
X224804Y222016D01*
X224890Y221937D01*
X224973Y221856D01*
X225053Y221772D01*
X225130Y221685D01*
X225205Y221595D01*
X225276Y221503D01*
X225344Y221409D01*
X225409Y221312D01*
X225470Y221214D01*
X225528Y221113D01*
X225583Y221010D01*
X225634Y220906D01*
X225682Y220800D01*
X225726Y220692D01*
X225766Y220583D01*
X225803Y220473D01*
X225836Y220361D01*
X225865Y220249D01*
X225891Y220135D01*
X225912Y220021D01*
X225930Y219906D01*
X225943Y219790D01*
X225953Y219674D01*
X225959Y219558D01*
X225961Y219442D01*
X225961Y215999D01*
D13*
X143454Y235458D02*
X143454Y247142D01*
X146699Y247142D02*
X140208Y247142D01*
X151280Y235458D02*
X156472Y235458D01*
X151280Y235458D02*
X151280Y247142D01*
X156472Y247142D01*
X155174Y241949D02*
X151280Y241949D01*
X161276Y247142D02*
X161276Y235458D01*
X165171Y240651D02*
X161276Y247142D01*
X165171Y240651D02*
X169065Y247142D01*
X169065Y235458D01*
X175048Y235458D02*
X175048Y247142D01*
X178294Y247142D01*
X178407Y247140D01*
X178520Y247134D01*
X178633Y247124D01*
X178746Y247110D01*
X178858Y247093D01*
X178969Y247071D01*
X179079Y247046D01*
X179189Y247016D01*
X179297Y246983D01*
X179404Y246946D01*
X179510Y246906D01*
X179614Y246861D01*
X179717Y246813D01*
X179818Y246762D01*
X179917Y246707D01*
X180014Y246649D01*
X180109Y246587D01*
X180202Y246522D01*
X180292Y246454D01*
X180380Y246383D01*
X180466Y246308D01*
X180549Y246231D01*
X180629Y246151D01*
X180706Y246068D01*
X180781Y245982D01*
X180852Y245894D01*
X180920Y245804D01*
X180985Y245711D01*
X181047Y245616D01*
X181105Y245519D01*
X181160Y245420D01*
X181211Y245319D01*
X181259Y245216D01*
X181304Y245112D01*
X181344Y245006D01*
X181381Y244899D01*
X181414Y244791D01*
X181444Y244681D01*
X181469Y244571D01*
X181491Y244460D01*
X181508Y244348D01*
X181522Y244235D01*
X181532Y244122D01*
X181538Y244009D01*
X181540Y243896D01*
X181538Y243783D01*
X181532Y243670D01*
X181522Y243557D01*
X181508Y243444D01*
X181491Y243332D01*
X181469Y243221D01*
X181444Y243111D01*
X181414Y243001D01*
X181381Y242893D01*
X181344Y242786D01*
X181304Y242680D01*
X181259Y242576D01*
X181211Y242473D01*
X181160Y242372D01*
X181105Y242273D01*
X181047Y242176D01*
X180985Y242081D01*
X180920Y241988D01*
X180852Y241898D01*
X180781Y241810D01*
X180706Y241724D01*
X180629Y241641D01*
X180549Y241561D01*
X180466Y241484D01*
X180380Y241409D01*
X180292Y241338D01*
X180202Y241270D01*
X180109Y241205D01*
X180014Y241143D01*
X179917Y241085D01*
X179818Y241030D01*
X179717Y240979D01*
X179614Y240931D01*
X179510Y240886D01*
X179404Y240846D01*
X179297Y240809D01*
X179189Y240776D01*
X179079Y240746D01*
X178969Y240721D01*
X178858Y240699D01*
X178746Y240682D01*
X178633Y240668D01*
X178520Y240658D01*
X178407Y240652D01*
X178294Y240650D01*
X178294Y240651D02*
X175048Y240651D01*
X186041Y240002D02*
X193830Y240002D01*
X198233Y235458D02*
X202128Y247142D01*
X206022Y235458D01*
X205049Y238379D02*
X199207Y238379D01*
D12*
X417950Y217190D02*
X417950Y189210D01*
X344050Y189210D01*
X344050Y217190D01*
X417950Y217190D01*
D11*
X329198Y199037D02*
X325755Y203341D01*
X341249Y203341D01*
X341249Y199037D02*
X341249Y207645D01*
X437769Y205881D02*
X437769Y201577D01*
X437769Y205881D02*
X437767Y206011D01*
X437761Y206141D01*
X437751Y206271D01*
X437738Y206400D01*
X437720Y206529D01*
X437699Y206657D01*
X437673Y206784D01*
X437644Y206911D01*
X437611Y207037D01*
X437574Y207161D01*
X437534Y207285D01*
X437489Y207407D01*
X437441Y207528D01*
X437390Y207647D01*
X437335Y207765D01*
X437276Y207881D01*
X437214Y207995D01*
X437148Y208108D01*
X437079Y208218D01*
X437007Y208326D01*
X436932Y208432D01*
X436853Y208535D01*
X436771Y208636D01*
X436687Y208735D01*
X436599Y208831D01*
X436508Y208924D01*
X436415Y209015D01*
X436319Y209103D01*
X436220Y209187D01*
X436119Y209269D01*
X436016Y209348D01*
X435910Y209423D01*
X435802Y209495D01*
X435692Y209564D01*
X435579Y209630D01*
X435465Y209692D01*
X435349Y209751D01*
X435231Y209806D01*
X435112Y209857D01*
X434991Y209905D01*
X434869Y209950D01*
X434745Y209990D01*
X434621Y210027D01*
X434495Y210060D01*
X434368Y210089D01*
X434241Y210115D01*
X434113Y210136D01*
X433984Y210154D01*
X433855Y210167D01*
X433725Y210177D01*
X433595Y210183D01*
X433465Y210185D01*
X433335Y210183D01*
X433205Y210177D01*
X433075Y210167D01*
X432946Y210154D01*
X432817Y210136D01*
X432689Y210115D01*
X432562Y210089D01*
X432435Y210060D01*
X432309Y210027D01*
X432185Y209990D01*
X432061Y209950D01*
X431939Y209905D01*
X431818Y209857D01*
X431699Y209806D01*
X431581Y209751D01*
X431465Y209692D01*
X431351Y209630D01*
X431238Y209564D01*
X431128Y209495D01*
X431020Y209423D01*
X430914Y209348D01*
X430811Y209269D01*
X430710Y209187D01*
X430611Y209103D01*
X430515Y209015D01*
X430422Y208924D01*
X430331Y208831D01*
X430243Y208735D01*
X430159Y208636D01*
X430077Y208535D01*
X429998Y208432D01*
X429923Y208326D01*
X429851Y208218D01*
X429782Y208108D01*
X429716Y207995D01*
X429654Y207881D01*
X429595Y207765D01*
X429540Y207647D01*
X429489Y207528D01*
X429441Y207407D01*
X429396Y207285D01*
X429356Y207161D01*
X429319Y207037D01*
X429286Y206911D01*
X429257Y206784D01*
X429231Y206657D01*
X429210Y206529D01*
X429192Y206400D01*
X429179Y206271D01*
X429169Y206141D01*
X429163Y206011D01*
X429161Y205881D01*
X422275Y206742D02*
X422275Y201577D01*
X422275Y206742D02*
X422277Y206858D01*
X422283Y206974D01*
X422293Y207090D01*
X422306Y207206D01*
X422324Y207321D01*
X422345Y207435D01*
X422371Y207549D01*
X422400Y207661D01*
X422433Y207773D01*
X422470Y207883D01*
X422510Y207992D01*
X422554Y208100D01*
X422602Y208206D01*
X422653Y208310D01*
X422708Y208413D01*
X422766Y208514D01*
X422827Y208612D01*
X422892Y208709D01*
X422960Y208803D01*
X423031Y208895D01*
X423106Y208985D01*
X423183Y209072D01*
X423263Y209156D01*
X423346Y209237D01*
X423432Y209316D01*
X423520Y209392D01*
X423611Y209465D01*
X423704Y209534D01*
X423799Y209601D01*
X423897Y209664D01*
X423997Y209724D01*
X424098Y209780D01*
X424202Y209833D01*
X424307Y209883D01*
X424414Y209928D01*
X424522Y209971D01*
X424632Y210009D01*
X424743Y210044D01*
X424855Y210075D01*
X424968Y210102D01*
X425082Y210126D01*
X425197Y210145D01*
X425312Y210161D01*
X425428Y210173D01*
X425544Y210181D01*
X425660Y210185D01*
X425776Y210185D01*
X425892Y210181D01*
X426008Y210173D01*
X426124Y210161D01*
X426239Y210145D01*
X426354Y210126D01*
X426468Y210102D01*
X426581Y210075D01*
X426693Y210044D01*
X426804Y210009D01*
X426914Y209971D01*
X427022Y209928D01*
X427129Y209883D01*
X427234Y209833D01*
X427338Y209780D01*
X427440Y209724D01*
X427539Y209664D01*
X427637Y209601D01*
X427732Y209534D01*
X427825Y209465D01*
X427916Y209392D01*
X428004Y209316D01*
X428090Y209237D01*
X428173Y209156D01*
X428253Y209072D01*
X428330Y208985D01*
X428405Y208895D01*
X428476Y208803D01*
X428544Y208709D01*
X428609Y208612D01*
X428670Y208514D01*
X428728Y208413D01*
X428783Y208310D01*
X428834Y208206D01*
X428882Y208100D01*
X428926Y207992D01*
X428966Y207883D01*
X429003Y207773D01*
X429036Y207661D01*
X429065Y207549D01*
X429091Y207435D01*
X429112Y207321D01*
X429130Y207206D01*
X429143Y207090D01*
X429153Y206974D01*
X429159Y206858D01*
X429161Y206742D01*
X429161Y203299D01*
D13*
X346654Y222758D02*
X346654Y234442D01*
X349899Y234442D02*
X343408Y234442D01*
X354480Y222758D02*
X359672Y222758D01*
X354480Y222758D02*
X354480Y234442D01*
X359672Y234442D01*
X358374Y229249D02*
X354480Y229249D01*
X364476Y234442D02*
X364476Y222758D01*
X368371Y227951D02*
X364476Y234442D01*
X368371Y227951D02*
X372265Y234442D01*
X372265Y222758D01*
X378248Y222758D02*
X378248Y234442D01*
X381494Y234442D01*
X381607Y234440D01*
X381720Y234434D01*
X381833Y234424D01*
X381946Y234410D01*
X382058Y234393D01*
X382169Y234371D01*
X382279Y234346D01*
X382389Y234316D01*
X382497Y234283D01*
X382604Y234246D01*
X382710Y234206D01*
X382814Y234161D01*
X382917Y234113D01*
X383018Y234062D01*
X383117Y234007D01*
X383214Y233949D01*
X383309Y233887D01*
X383402Y233822D01*
X383492Y233754D01*
X383580Y233683D01*
X383666Y233608D01*
X383749Y233531D01*
X383829Y233451D01*
X383906Y233368D01*
X383981Y233282D01*
X384052Y233194D01*
X384120Y233104D01*
X384185Y233011D01*
X384247Y232916D01*
X384305Y232819D01*
X384360Y232720D01*
X384411Y232619D01*
X384459Y232516D01*
X384504Y232412D01*
X384544Y232306D01*
X384581Y232199D01*
X384614Y232091D01*
X384644Y231981D01*
X384669Y231871D01*
X384691Y231760D01*
X384708Y231648D01*
X384722Y231535D01*
X384732Y231422D01*
X384738Y231309D01*
X384740Y231196D01*
X384738Y231083D01*
X384732Y230970D01*
X384722Y230857D01*
X384708Y230744D01*
X384691Y230632D01*
X384669Y230521D01*
X384644Y230411D01*
X384614Y230301D01*
X384581Y230193D01*
X384544Y230086D01*
X384504Y229980D01*
X384459Y229876D01*
X384411Y229773D01*
X384360Y229672D01*
X384305Y229573D01*
X384247Y229476D01*
X384185Y229381D01*
X384120Y229288D01*
X384052Y229198D01*
X383981Y229110D01*
X383906Y229024D01*
X383829Y228941D01*
X383749Y228861D01*
X383666Y228784D01*
X383580Y228709D01*
X383492Y228638D01*
X383402Y228570D01*
X383309Y228505D01*
X383214Y228443D01*
X383117Y228385D01*
X383018Y228330D01*
X382917Y228279D01*
X382814Y228231D01*
X382710Y228186D01*
X382604Y228146D01*
X382497Y228109D01*
X382389Y228076D01*
X382279Y228046D01*
X382169Y228021D01*
X382058Y227999D01*
X381946Y227982D01*
X381833Y227968D01*
X381720Y227958D01*
X381607Y227952D01*
X381494Y227950D01*
X381494Y227951D02*
X378248Y227951D01*
X389241Y227302D02*
X397030Y227302D01*
X401659Y234442D02*
X404255Y222758D01*
X406852Y230547D01*
X409448Y222758D01*
X412044Y234442D01*
D12*
X468610Y75050D02*
X674390Y75050D01*
X674390Y51950D01*
X468610Y51950D01*
X468610Y75050D01*
D11*
X482459Y49149D02*
X478155Y45706D01*
X482459Y49149D02*
X482459Y33655D01*
X478155Y33655D02*
X486763Y33655D01*
D13*
X459796Y51308D02*
X451358Y51308D01*
X459796Y51308D02*
X459909Y51310D01*
X460022Y51316D01*
X460135Y51326D01*
X460248Y51340D01*
X460360Y51357D01*
X460471Y51379D01*
X460581Y51404D01*
X460691Y51434D01*
X460799Y51467D01*
X460906Y51504D01*
X461012Y51544D01*
X461116Y51589D01*
X461219Y51637D01*
X461320Y51688D01*
X461419Y51743D01*
X461516Y51801D01*
X461611Y51863D01*
X461704Y51928D01*
X461794Y51996D01*
X461882Y52067D01*
X461968Y52142D01*
X462051Y52219D01*
X462131Y52299D01*
X462208Y52382D01*
X462283Y52468D01*
X462354Y52556D01*
X462422Y52646D01*
X462487Y52739D01*
X462549Y52834D01*
X462607Y52931D01*
X462662Y53030D01*
X462713Y53131D01*
X462761Y53234D01*
X462806Y53338D01*
X462846Y53444D01*
X462883Y53551D01*
X462916Y53659D01*
X462946Y53769D01*
X462971Y53879D01*
X462993Y53990D01*
X463010Y54102D01*
X463024Y54215D01*
X463034Y54328D01*
X463040Y54441D01*
X463042Y54554D01*
X463040Y54667D01*
X463034Y54780D01*
X463024Y54893D01*
X463010Y55006D01*
X462993Y55118D01*
X462971Y55229D01*
X462946Y55339D01*
X462916Y55449D01*
X462883Y55557D01*
X462846Y55664D01*
X462806Y55770D01*
X462761Y55874D01*
X462713Y55977D01*
X462662Y56078D01*
X462607Y56177D01*
X462549Y56274D01*
X462487Y56369D01*
X462422Y56462D01*
X462354Y56552D01*
X462283Y56640D01*
X462208Y56726D01*
X462131Y56809D01*
X462051Y56889D01*
X461968Y56966D01*
X461882Y57041D01*
X461794Y57112D01*
X461704Y57180D01*
X461611Y57245D01*
X461516Y57307D01*
X461419Y57365D01*
X461320Y57420D01*
X461219Y57471D01*
X461116Y57519D01*
X461012Y57564D01*
X460906Y57604D01*
X460799Y57641D01*
X460691Y57674D01*
X460581Y57704D01*
X460471Y57729D01*
X460360Y57751D01*
X460248Y57768D01*
X460135Y57782D01*
X460022Y57792D01*
X459909Y57798D01*
X459796Y57800D01*
X459796Y57799D02*
X451358Y57799D01*
X451358Y65603D02*
X463042Y65603D01*
X451358Y62357D02*
X451358Y68848D01*
X451358Y73985D02*
X463042Y73985D01*
X463042Y75283D02*
X463042Y72686D01*
X451358Y72686D02*
X451358Y75283D01*
X451358Y80287D02*
X463042Y80287D01*
X463042Y85479D01*
X463042Y90749D02*
X451358Y90749D01*
X463042Y89450D02*
X463042Y92047D01*
X451358Y92047D02*
X451358Y89450D01*
X451358Y99130D02*
X463042Y99130D01*
X451358Y95885D02*
X451358Y102376D01*
X451358Y105904D02*
X456875Y109798D01*
X451358Y113693D01*
X456875Y109798D02*
X463042Y109798D01*
D12*
X519410Y191650D02*
X623590Y191650D01*
X519410Y191650D02*
X519410Y214750D01*
X623590Y214750D01*
X623590Y191650D01*
D11*
X605437Y229602D02*
X609741Y233045D01*
X609741Y217551D01*
X605437Y217551D02*
X614045Y217551D01*
D13*
X629158Y130505D02*
X640842Y133102D01*
X633053Y135698D01*
X640842Y138295D01*
X629158Y140891D01*
X629158Y148652D02*
X640842Y144758D01*
X640842Y152547D02*
X629158Y148652D01*
X637921Y151573D02*
X637921Y145731D01*
X640842Y159320D02*
X629158Y159320D01*
X629158Y156075D02*
X629158Y162566D01*
X640842Y167146D02*
X640842Y172339D01*
X640842Y167146D02*
X629158Y167146D01*
X629158Y172339D01*
X634351Y171041D02*
X634351Y167146D01*
X629158Y177103D02*
X640842Y177103D01*
X629158Y177103D02*
X629158Y180349D01*
X629160Y180462D01*
X629166Y180575D01*
X629176Y180688D01*
X629190Y180801D01*
X629207Y180913D01*
X629229Y181024D01*
X629254Y181134D01*
X629284Y181244D01*
X629317Y181352D01*
X629354Y181459D01*
X629394Y181565D01*
X629439Y181669D01*
X629487Y181772D01*
X629538Y181873D01*
X629593Y181972D01*
X629651Y182069D01*
X629713Y182164D01*
X629778Y182257D01*
X629846Y182347D01*
X629917Y182435D01*
X629992Y182521D01*
X630069Y182604D01*
X630149Y182684D01*
X630232Y182761D01*
X630318Y182836D01*
X630406Y182907D01*
X630496Y182975D01*
X630589Y183040D01*
X630684Y183102D01*
X630781Y183160D01*
X630880Y183215D01*
X630981Y183266D01*
X631084Y183314D01*
X631188Y183359D01*
X631294Y183399D01*
X631401Y183436D01*
X631509Y183469D01*
X631619Y183499D01*
X631729Y183524D01*
X631840Y183546D01*
X631952Y183563D01*
X632065Y183577D01*
X632178Y183587D01*
X632291Y183593D01*
X632404Y183595D01*
X632517Y183593D01*
X632630Y183587D01*
X632743Y183577D01*
X632856Y183563D01*
X632968Y183546D01*
X633079Y183524D01*
X633189Y183499D01*
X633299Y183469D01*
X633407Y183436D01*
X633514Y183399D01*
X633620Y183359D01*
X633724Y183314D01*
X633827Y183266D01*
X633928Y183215D01*
X634027Y183160D01*
X634124Y183102D01*
X634219Y183040D01*
X634312Y182975D01*
X634402Y182907D01*
X634490Y182836D01*
X634576Y182761D01*
X634659Y182684D01*
X634739Y182604D01*
X634816Y182521D01*
X634891Y182435D01*
X634962Y182347D01*
X635030Y182257D01*
X635095Y182164D01*
X635157Y182069D01*
X635215Y181972D01*
X635270Y181873D01*
X635321Y181772D01*
X635369Y181669D01*
X635414Y181565D01*
X635454Y181459D01*
X635491Y181352D01*
X635524Y181244D01*
X635554Y181134D01*
X635579Y181024D01*
X635601Y180913D01*
X635618Y180801D01*
X635632Y180688D01*
X635642Y180575D01*
X635648Y180462D01*
X635650Y180349D01*
X635649Y180349D02*
X635649Y177103D01*
X635649Y180998D02*
X640842Y183594D01*
X640842Y188863D02*
X629158Y188863D01*
X640842Y188863D02*
X640842Y194056D01*
X640842Y201611D02*
X629158Y197716D01*
X629158Y205506D02*
X640842Y201611D01*
X640842Y210199D02*
X629158Y210199D01*
X640842Y210199D02*
X640842Y215392D01*
M02*
