G04 EAGLE Gerber RS-274X export*
G75*
%MOMM*%
%FSLAX34Y34*%
%LPD*%
%INSoldermask Bottom*%
%IPPOS*%
%AMOC8*
5,1,8,0,0,1.08239X$1,22.5*%
G01*
%ADD10C,1.727200*%
%ADD11P,1.852186X8X22.500000*%
%ADD12P,1.759533X8X292.500000*%
%ADD13P,1.759533X8X112.500000*%
%ADD14P,1.649562X8X22.500000*%
%ADD15P,1.852186X8X292.500000*%
%ADD16P,1.852186X8X202.500000*%


D10*
X876300Y233680D02*
X876300Y248920D01*
X901700Y248920D02*
X901700Y233680D01*
X927100Y233680D02*
X927100Y248920D01*
D11*
X812800Y63500D03*
X838200Y63500D03*
X863600Y63500D03*
X889000Y63500D03*
X914400Y63500D03*
X939800Y63500D03*
X444500Y355600D03*
X469900Y355600D03*
X495300Y355600D03*
X520700Y355600D03*
X546100Y355600D03*
X571500Y355600D03*
X596900Y355600D03*
X622300Y355600D03*
D12*
X152400Y635000D03*
X152400Y533400D03*
D13*
X114300Y533400D03*
X114300Y635000D03*
X355600Y533400D03*
X355600Y635000D03*
D12*
X292100Y635000D03*
X292100Y533400D03*
X635000Y635000D03*
X635000Y533400D03*
X584200Y635000D03*
X584200Y533400D03*
X850900Y635000D03*
X850900Y533400D03*
X800100Y635000D03*
X800100Y533400D03*
D14*
X127000Y723900D03*
X114300Y742950D03*
X101600Y723900D03*
X330200Y711200D03*
X317500Y730250D03*
X304800Y711200D03*
X609600Y711200D03*
X596900Y730250D03*
X584200Y711200D03*
X838200Y711200D03*
X825500Y730250D03*
X812800Y711200D03*
D15*
X152400Y215900D03*
X177800Y215900D03*
X203200Y215900D03*
X355600Y203200D03*
X381000Y203200D03*
X406400Y203200D03*
D11*
X482600Y63500D03*
X508000Y63500D03*
X533400Y63500D03*
X558800Y63500D03*
X584200Y63500D03*
X609600Y63500D03*
X635000Y63500D03*
X660400Y63500D03*
D16*
X609600Y203200D03*
X584200Y203200D03*
X558800Y203200D03*
X533400Y203200D03*
M02*
